M48
; DRILL file {KiCad (5.1.8)-1} date 12/04/20 21:04:47
; FORMAT={-:-/ absolute / inch / decimal}
; #@! TF.CreationDate,2020-12-04T21:04:47+03:00
; #@! TF.GenerationSoftware,Kicad,Pcbnew,(5.1.8)-1
; #@! TF.FileFunction,Plated,1,2,PTH
FMAT,2
INCH
T1C0.0118
T2C0.0157
T3C0.0236
T4C0.0335
T5C0.0394
%
G90
G05
T1
X4.1398Y-2.245
X4.1398Y-2.345
X4.1398Y-2.445
X4.1398Y-2.545
X4.1398Y-2.645
X4.1398Y-2.745
X4.1398Y-3.245
X4.1398Y-3.345
X4.1398Y-3.445
X4.1398Y-3.545
X4.1398Y-3.645
X4.2398Y-2.245
X4.2398Y-3.645
X4.3398Y-2.245
X4.3398Y-3.645
X4.3568Y-2.973
X4.3838Y-2.889
X4.4248Y-2.974
X4.4308Y-2.888
X4.4398Y-2.245
X4.4398Y-3.645
X4.4768Y-2.975
X4.4818Y-2.887
X4.5398Y-2.245
X4.5398Y-3.645
X4.5478Y-3.079
X4.5498Y-2.847
X4.6358Y-2.847
X4.6378Y-3.083
X4.6398Y-2.245
X4.6398Y-3.645
X4.7028Y-2.89
X4.7038Y-3.023
X4.7198Y-3.312
X4.7398Y-2.245
X4.7398Y-3.645
X4.7888Y-2.889
X4.7888Y-3.023
X4.8398Y-2.245
X4.8398Y-3.645
X4.8578Y-3.079
X4.8758Y-2.923
X4.9188Y-2.986
X4.9358Y-3.291
X4.9378Y-3.536
X4.9398Y-2.245
X4.9398Y-3.645
X4.9478Y-2.684
X4.9828Y-3.443
X5.0398Y-2.245
X5.0398Y-3.645
X5.1298Y-3.442
X5.1398Y-2.245
X5.1398Y-3.645
X5.1554Y-2.5979
X5.2251Y-2.5974
X5.2378Y-2.743
X5.2398Y-2.245
X5.2398Y-3.645
X5.2418Y-3.191
X5.2778Y-3.436
X5.2919Y-2.5996
X5.3378Y-2.6001
X5.3398Y-2.245
X5.3398Y-3.645
X5.4108Y-2.781
X5.4158Y-2.99
X5.435Y-2.6274
X5.4398Y-3.645
X5.4758Y-3.176
X5.5108Y-2.664
X5.5398Y-3.645
X5.6398Y-2.245
X5.6398Y-3.645
X5.6508Y-2.894
X5.6518Y-3.229
X5.6558Y-3.057
X5.6728Y-2.682
X5.7398Y-2.245
X5.7398Y-3.645
X5.8308Y-2.673
X5.8398Y-2.245
X5.8398Y-3.645
X5.8748Y-2.863
X5.8818Y-3.225
X5.8958Y-3.058
X5.9398Y-2.245
X5.9398Y-3.645
X6.0398Y-2.245
X6.0398Y-2.345
X6.0398Y-3.645
T2
X4.8437Y-3.3141
X5.0619Y-3.0187
X5.0631Y-2.5278
X5.1586Y-2.9975
X5.1627Y-2.9421
X5.4343Y-3.1004
T4
X4.2576Y-2.8765
X4.2576Y-3.0733
T5
X6.0Y-2.5
X6.0Y-2.6
X6.0Y-2.7
X6.0Y-2.8
X6.0Y-2.9
X6.0Y-3.0
X6.0Y-3.1
X6.0Y-3.2
X6.0Y-3.3
X6.0Y-3.4
X6.0Y-3.5
T3
G00X4.1375Y-2.8371
M15
G01X4.1651Y-2.8371
M16
G05
G00X4.1651Y-3.1127
M15
G01X4.1375Y-3.1127
M16
G05
T0
M30
