%TF.GenerationSoftware,KiCad,Pcbnew,(5.1.8)-1*%
%TF.CreationDate,2020-12-04T21:04:29+03:00*%
%TF.ProjectId,InterfaceG850,496e7465-7266-4616-9365-473835302e6b,rev?*%
%TF.SameCoordinates,Original*%
%TF.FileFunction,Soldermask,Top*%
%TF.FilePolarity,Negative*%
%FSLAX46Y46*%
G04 Gerber Fmt 4.6, Leading zero omitted, Abs format (unit mm)*
G04 Created by KiCad (PCBNEW (5.1.8)-1) date 2020-12-04 21:04:29*
%MOMM*%
%LPD*%
G01*
G04 APERTURE LIST*
%ADD10C,0.100000*%
%ADD11R,0.450000X1.750000*%
%ADD12O,1.700000X1.700000*%
%ADD13R,1.700000X1.700000*%
%ADD14R,1.900000X1.200000*%
%ADD15O,1.900000X1.200000*%
%ADD16R,1.900000X1.500000*%
%ADD17C,1.450000*%
%ADD18R,1.350000X0.400000*%
G04 APERTURE END LIST*
D10*
G36*
X122930920Y-70993000D02*
G01*
X115310920Y-70993000D01*
X115310920Y-67945000D01*
X122930920Y-67945000D01*
X122930920Y-70993000D01*
G37*
X122930920Y-70993000D02*
X115310920Y-70993000D01*
X115310920Y-67945000D01*
X122930920Y-67945000D01*
X122930920Y-70993000D01*
D11*
%TO.C,U1*%
X133765000Y-78530000D03*
X133115000Y-78530000D03*
X132465000Y-78530000D03*
X131815000Y-78530000D03*
X131165000Y-78530000D03*
X130515000Y-78530000D03*
X129865000Y-78530000D03*
X129215000Y-78530000D03*
X128565000Y-78530000D03*
X127915000Y-78530000D03*
X127265000Y-78530000D03*
X126615000Y-78530000D03*
X125965000Y-78530000D03*
X125315000Y-78530000D03*
X125315000Y-71330000D03*
X125965000Y-71330000D03*
X126615000Y-71330000D03*
X127265000Y-71330000D03*
X127915000Y-71330000D03*
X128565000Y-71330000D03*
X129215000Y-71330000D03*
X129865000Y-71330000D03*
X130515000Y-71330000D03*
X131165000Y-71330000D03*
X131815000Y-71330000D03*
X132465000Y-71330000D03*
X133115000Y-71330000D03*
X133765000Y-71330000D03*
%TD*%
%TO.C,R13*%
G36*
G01*
X128091779Y-85558580D02*
X128991781Y-85558580D01*
G75*
G02*
X129241780Y-85808579I0J-249999D01*
G01*
X129241780Y-86508581D01*
G75*
G02*
X128991781Y-86758580I-249999J0D01*
G01*
X128091779Y-86758580D01*
G75*
G02*
X127841780Y-86508581I0J249999D01*
G01*
X127841780Y-85808579D01*
G75*
G02*
X128091779Y-85558580I249999J0D01*
G01*
G37*
G36*
G01*
X128091779Y-83558580D02*
X128991781Y-83558580D01*
G75*
G02*
X129241780Y-83808579I0J-249999D01*
G01*
X129241780Y-84508581D01*
G75*
G02*
X128991781Y-84758580I-249999J0D01*
G01*
X128091779Y-84758580D01*
G75*
G02*
X127841780Y-84508581I0J249999D01*
G01*
X127841780Y-83808579D01*
G75*
G02*
X128091779Y-83558580I249999J0D01*
G01*
G37*
%TD*%
%TO.C,R12*%
G36*
G01*
X131901779Y-85558580D02*
X132801781Y-85558580D01*
G75*
G02*
X133051780Y-85808579I0J-249999D01*
G01*
X133051780Y-86508581D01*
G75*
G02*
X132801781Y-86758580I-249999J0D01*
G01*
X131901779Y-86758580D01*
G75*
G02*
X131651780Y-86508581I0J249999D01*
G01*
X131651780Y-85808579D01*
G75*
G02*
X131901779Y-85558580I249999J0D01*
G01*
G37*
G36*
G01*
X131901779Y-83558580D02*
X132801781Y-83558580D01*
G75*
G02*
X133051780Y-83808579I0J-249999D01*
G01*
X133051780Y-84508581D01*
G75*
G02*
X132801781Y-84758580I-249999J0D01*
G01*
X131901779Y-84758580D01*
G75*
G02*
X131651780Y-84508581I0J249999D01*
G01*
X131651780Y-83808579D01*
G75*
G02*
X131901779Y-83558580I249999J0D01*
G01*
G37*
%TD*%
%TO.C,R11*%
G36*
G01*
X116574620Y-58747239D02*
X116574620Y-59647241D01*
G75*
G02*
X116324621Y-59897240I-249999J0D01*
G01*
X115624619Y-59897240D01*
G75*
G02*
X115374620Y-59647241I0J249999D01*
G01*
X115374620Y-58747239D01*
G75*
G02*
X115624619Y-58497240I249999J0D01*
G01*
X116324621Y-58497240D01*
G75*
G02*
X116574620Y-58747239I0J-249999D01*
G01*
G37*
G36*
G01*
X118574620Y-58747239D02*
X118574620Y-59647241D01*
G75*
G02*
X118324621Y-59897240I-249999J0D01*
G01*
X117624619Y-59897240D01*
G75*
G02*
X117374620Y-59647241I0J249999D01*
G01*
X117374620Y-58747239D01*
G75*
G02*
X117624619Y-58497240I249999J0D01*
G01*
X118324621Y-58497240D01*
G75*
G02*
X118574620Y-58747239I0J-249999D01*
G01*
G37*
%TD*%
%TO.C,R10*%
G36*
G01*
X145920000Y-70669999D02*
X145920000Y-71570001D01*
G75*
G02*
X145670001Y-71820000I-249999J0D01*
G01*
X144969999Y-71820000D01*
G75*
G02*
X144720000Y-71570001I0J249999D01*
G01*
X144720000Y-70669999D01*
G75*
G02*
X144969999Y-70420000I249999J0D01*
G01*
X145670001Y-70420000D01*
G75*
G02*
X145920000Y-70669999I0J-249999D01*
G01*
G37*
G36*
G01*
X147920000Y-70669999D02*
X147920000Y-71570001D01*
G75*
G02*
X147670001Y-71820000I-249999J0D01*
G01*
X146969999Y-71820000D01*
G75*
G02*
X146720000Y-71570001I0J249999D01*
G01*
X146720000Y-70669999D01*
G75*
G02*
X146969999Y-70420000I249999J0D01*
G01*
X147670001Y-70420000D01*
G75*
G02*
X147920000Y-70669999I0J-249999D01*
G01*
G37*
%TD*%
%TO.C,R9*%
G36*
G01*
X145650000Y-83369999D02*
X145650000Y-84270001D01*
G75*
G02*
X145400001Y-84520000I-249999J0D01*
G01*
X144699999Y-84520000D01*
G75*
G02*
X144450000Y-84270001I0J249999D01*
G01*
X144450000Y-83369999D01*
G75*
G02*
X144699999Y-83120000I249999J0D01*
G01*
X145400001Y-83120000D01*
G75*
G02*
X145650000Y-83369999I0J-249999D01*
G01*
G37*
G36*
G01*
X147650000Y-83369999D02*
X147650000Y-84270001D01*
G75*
G02*
X147400001Y-84520000I-249999J0D01*
G01*
X146699999Y-84520000D01*
G75*
G02*
X146450000Y-84270001I0J249999D01*
G01*
X146450000Y-83369999D01*
G75*
G02*
X146699999Y-83120000I249999J0D01*
G01*
X147400001Y-83120000D01*
G75*
G02*
X147650000Y-83369999I0J-249999D01*
G01*
G37*
%TD*%
%TO.C,R8*%
G36*
G01*
X145920000Y-78289999D02*
X145920000Y-79190001D01*
G75*
G02*
X145670001Y-79440000I-249999J0D01*
G01*
X144969999Y-79440000D01*
G75*
G02*
X144720000Y-79190001I0J249999D01*
G01*
X144720000Y-78289999D01*
G75*
G02*
X144969999Y-78040000I249999J0D01*
G01*
X145670001Y-78040000D01*
G75*
G02*
X145920000Y-78289999I0J-249999D01*
G01*
G37*
G36*
G01*
X147920000Y-78289999D02*
X147920000Y-79190001D01*
G75*
G02*
X147670001Y-79440000I-249999J0D01*
G01*
X146969999Y-79440000D01*
G75*
G02*
X146720000Y-79190001I0J249999D01*
G01*
X146720000Y-78289999D01*
G75*
G02*
X146969999Y-78040000I249999J0D01*
G01*
X147670001Y-78040000D01*
G75*
G02*
X147920000Y-78289999I0J-249999D01*
G01*
G37*
%TD*%
%TO.C,R7*%
G36*
G01*
X145920000Y-75749999D02*
X145920000Y-76650001D01*
G75*
G02*
X145670001Y-76900000I-249999J0D01*
G01*
X144969999Y-76900000D01*
G75*
G02*
X144720000Y-76650001I0J249999D01*
G01*
X144720000Y-75749999D01*
G75*
G02*
X144969999Y-75500000I249999J0D01*
G01*
X145670001Y-75500000D01*
G75*
G02*
X145920000Y-75749999I0J-249999D01*
G01*
G37*
G36*
G01*
X147920000Y-75749999D02*
X147920000Y-76650001D01*
G75*
G02*
X147670001Y-76900000I-249999J0D01*
G01*
X146969999Y-76900000D01*
G75*
G02*
X146720000Y-76650001I0J249999D01*
G01*
X146720000Y-75749999D01*
G75*
G02*
X146969999Y-75500000I249999J0D01*
G01*
X147670001Y-75500000D01*
G75*
G02*
X147920000Y-75749999I0J-249999D01*
G01*
G37*
%TD*%
%TO.C,R6*%
G36*
G01*
X116217240Y-73651959D02*
X116217240Y-74551961D01*
G75*
G02*
X115967241Y-74801960I-249999J0D01*
G01*
X115267239Y-74801960D01*
G75*
G02*
X115017240Y-74551961I0J249999D01*
G01*
X115017240Y-73651959D01*
G75*
G02*
X115267239Y-73401960I249999J0D01*
G01*
X115967241Y-73401960D01*
G75*
G02*
X116217240Y-73651959I0J-249999D01*
G01*
G37*
G36*
G01*
X118217240Y-73651959D02*
X118217240Y-74551961D01*
G75*
G02*
X117967241Y-74801960I-249999J0D01*
G01*
X117267239Y-74801960D01*
G75*
G02*
X117017240Y-74551961I0J249999D01*
G01*
X117017240Y-73651959D01*
G75*
G02*
X117267239Y-73401960I249999J0D01*
G01*
X117967241Y-73401960D01*
G75*
G02*
X118217240Y-73651959I0J-249999D01*
G01*
G37*
%TD*%
%TO.C,R5*%
G36*
G01*
X116226640Y-75818579D02*
X116226640Y-76718581D01*
G75*
G02*
X115976641Y-76968580I-249999J0D01*
G01*
X115276639Y-76968580D01*
G75*
G02*
X115026640Y-76718581I0J249999D01*
G01*
X115026640Y-75818579D01*
G75*
G02*
X115276639Y-75568580I249999J0D01*
G01*
X115976641Y-75568580D01*
G75*
G02*
X116226640Y-75818579I0J-249999D01*
G01*
G37*
G36*
G01*
X118226640Y-75818579D02*
X118226640Y-76718581D01*
G75*
G02*
X117976641Y-76968580I-249999J0D01*
G01*
X117276639Y-76968580D01*
G75*
G02*
X117026640Y-76718581I0J249999D01*
G01*
X117026640Y-75818579D01*
G75*
G02*
X117276639Y-75568580I249999J0D01*
G01*
X117976641Y-75568580D01*
G75*
G02*
X118226640Y-75818579I0J-249999D01*
G01*
G37*
%TD*%
%TO.C,R4*%
G36*
G01*
X140570000Y-70669999D02*
X140570000Y-71570001D01*
G75*
G02*
X140320001Y-71820000I-249999J0D01*
G01*
X139619999Y-71820000D01*
G75*
G02*
X139370000Y-71570001I0J249999D01*
G01*
X139370000Y-70669999D01*
G75*
G02*
X139619999Y-70420000I249999J0D01*
G01*
X140320001Y-70420000D01*
G75*
G02*
X140570000Y-70669999I0J-249999D01*
G01*
G37*
G36*
G01*
X142570000Y-70669999D02*
X142570000Y-71570001D01*
G75*
G02*
X142320001Y-71820000I-249999J0D01*
G01*
X141619999Y-71820000D01*
G75*
G02*
X141370000Y-71570001I0J249999D01*
G01*
X141370000Y-70669999D01*
G75*
G02*
X141619999Y-70420000I249999J0D01*
G01*
X142320001Y-70420000D01*
G75*
G02*
X142570000Y-70669999I0J-249999D01*
G01*
G37*
%TD*%
%TO.C,R3*%
G36*
G01*
X140570000Y-83369999D02*
X140570000Y-84270001D01*
G75*
G02*
X140320001Y-84520000I-249999J0D01*
G01*
X139619999Y-84520000D01*
G75*
G02*
X139370000Y-84270001I0J249999D01*
G01*
X139370000Y-83369999D01*
G75*
G02*
X139619999Y-83120000I249999J0D01*
G01*
X140320001Y-83120000D01*
G75*
G02*
X140570000Y-83369999I0J-249999D01*
G01*
G37*
G36*
G01*
X142570000Y-83369999D02*
X142570000Y-84270001D01*
G75*
G02*
X142320001Y-84520000I-249999J0D01*
G01*
X141619999Y-84520000D01*
G75*
G02*
X141370000Y-84270001I0J249999D01*
G01*
X141370000Y-83369999D01*
G75*
G02*
X141619999Y-83120000I249999J0D01*
G01*
X142320001Y-83120000D01*
G75*
G02*
X142570000Y-83369999I0J-249999D01*
G01*
G37*
%TD*%
%TO.C,R2*%
G36*
G01*
X140570000Y-78289999D02*
X140570000Y-79190001D01*
G75*
G02*
X140320001Y-79440000I-249999J0D01*
G01*
X139619999Y-79440000D01*
G75*
G02*
X139370000Y-79190001I0J249999D01*
G01*
X139370000Y-78289999D01*
G75*
G02*
X139619999Y-78040000I249999J0D01*
G01*
X140320001Y-78040000D01*
G75*
G02*
X140570000Y-78289999I0J-249999D01*
G01*
G37*
G36*
G01*
X142570000Y-78289999D02*
X142570000Y-79190001D01*
G75*
G02*
X142320001Y-79440000I-249999J0D01*
G01*
X141619999Y-79440000D01*
G75*
G02*
X141370000Y-79190001I0J249999D01*
G01*
X141370000Y-78289999D01*
G75*
G02*
X141619999Y-78040000I249999J0D01*
G01*
X142320001Y-78040000D01*
G75*
G02*
X142570000Y-78289999I0J-249999D01*
G01*
G37*
%TD*%
%TO.C,R1*%
G36*
G01*
X140570000Y-75749999D02*
X140570000Y-76650001D01*
G75*
G02*
X140320001Y-76900000I-249999J0D01*
G01*
X139619999Y-76900000D01*
G75*
G02*
X139370000Y-76650001I0J249999D01*
G01*
X139370000Y-75749999D01*
G75*
G02*
X139619999Y-75500000I249999J0D01*
G01*
X140320001Y-75500000D01*
G75*
G02*
X140570000Y-75749999I0J-249999D01*
G01*
G37*
G36*
G01*
X142570000Y-75749999D02*
X142570000Y-76650001D01*
G75*
G02*
X142320001Y-76900000I-249999J0D01*
G01*
X141619999Y-76900000D01*
G75*
G02*
X141370000Y-76650001I0J249999D01*
G01*
X141370000Y-75749999D01*
G75*
G02*
X141619999Y-75500000I249999J0D01*
G01*
X142320001Y-75500000D01*
G75*
G02*
X142570000Y-75749999I0J-249999D01*
G01*
G37*
%TD*%
D10*
%TO.C,JP3*%
G36*
X144780000Y-65290602D02*
G01*
X144804534Y-65290602D01*
X144853365Y-65295412D01*
X144901490Y-65304984D01*
X144948445Y-65319228D01*
X144993778Y-65338005D01*
X145037051Y-65361136D01*
X145077850Y-65388396D01*
X145115779Y-65419524D01*
X145150476Y-65454221D01*
X145181604Y-65492150D01*
X145208864Y-65532949D01*
X145231995Y-65576222D01*
X145250772Y-65621555D01*
X145265016Y-65668510D01*
X145274588Y-65716635D01*
X145279398Y-65765466D01*
X145279398Y-65790000D01*
X145280000Y-65790000D01*
X145280000Y-66290000D01*
X145279398Y-66290000D01*
X145279398Y-66314534D01*
X145274588Y-66363365D01*
X145265016Y-66411490D01*
X145250772Y-66458445D01*
X145231995Y-66503778D01*
X145208864Y-66547051D01*
X145181604Y-66587850D01*
X145150476Y-66625779D01*
X145115779Y-66660476D01*
X145077850Y-66691604D01*
X145037051Y-66718864D01*
X144993778Y-66741995D01*
X144948445Y-66760772D01*
X144901490Y-66775016D01*
X144853365Y-66784588D01*
X144804534Y-66789398D01*
X144780000Y-66789398D01*
X144780000Y-66790000D01*
X144280000Y-66790000D01*
X144280000Y-65290000D01*
X144780000Y-65290000D01*
X144780000Y-65290602D01*
G37*
G36*
X143980000Y-66790000D02*
G01*
X143480000Y-66790000D01*
X143480000Y-66789398D01*
X143455466Y-66789398D01*
X143406635Y-66784588D01*
X143358510Y-66775016D01*
X143311555Y-66760772D01*
X143266222Y-66741995D01*
X143222949Y-66718864D01*
X143182150Y-66691604D01*
X143144221Y-66660476D01*
X143109524Y-66625779D01*
X143078396Y-66587850D01*
X143051136Y-66547051D01*
X143028005Y-66503778D01*
X143009228Y-66458445D01*
X142994984Y-66411490D01*
X142985412Y-66363365D01*
X142980602Y-66314534D01*
X142980602Y-66290000D01*
X142980000Y-66290000D01*
X142980000Y-65790000D01*
X142980602Y-65790000D01*
X142980602Y-65765466D01*
X142985412Y-65716635D01*
X142994984Y-65668510D01*
X143009228Y-65621555D01*
X143028005Y-65576222D01*
X143051136Y-65532949D01*
X143078396Y-65492150D01*
X143109524Y-65454221D01*
X143144221Y-65419524D01*
X143182150Y-65388396D01*
X143222949Y-65361136D01*
X143266222Y-65338005D01*
X143311555Y-65319228D01*
X143358510Y-65304984D01*
X143406635Y-65295412D01*
X143455466Y-65290602D01*
X143480000Y-65290602D01*
X143480000Y-65290000D01*
X143980000Y-65290000D01*
X143980000Y-66790000D01*
G37*
%TD*%
%TO.C,JP2*%
G36*
X124340140Y-86690102D02*
G01*
X124364674Y-86690102D01*
X124413505Y-86694912D01*
X124461630Y-86704484D01*
X124508585Y-86718728D01*
X124553918Y-86737505D01*
X124597191Y-86760636D01*
X124637990Y-86787896D01*
X124675919Y-86819024D01*
X124710616Y-86853721D01*
X124741744Y-86891650D01*
X124769004Y-86932449D01*
X124792135Y-86975722D01*
X124810912Y-87021055D01*
X124825156Y-87068010D01*
X124834728Y-87116135D01*
X124839538Y-87164966D01*
X124839538Y-87189500D01*
X124840140Y-87189500D01*
X124840140Y-87689500D01*
X124839538Y-87689500D01*
X124839538Y-87714034D01*
X124834728Y-87762865D01*
X124825156Y-87810990D01*
X124810912Y-87857945D01*
X124792135Y-87903278D01*
X124769004Y-87946551D01*
X124741744Y-87987350D01*
X124710616Y-88025279D01*
X124675919Y-88059976D01*
X124637990Y-88091104D01*
X124597191Y-88118364D01*
X124553918Y-88141495D01*
X124508585Y-88160272D01*
X124461630Y-88174516D01*
X124413505Y-88184088D01*
X124364674Y-88188898D01*
X124340140Y-88188898D01*
X124340140Y-88189500D01*
X123840140Y-88189500D01*
X123840140Y-86689500D01*
X124340140Y-86689500D01*
X124340140Y-86690102D01*
G37*
G36*
X123540140Y-88189500D02*
G01*
X123040140Y-88189500D01*
X123040140Y-88188898D01*
X123015606Y-88188898D01*
X122966775Y-88184088D01*
X122918650Y-88174516D01*
X122871695Y-88160272D01*
X122826362Y-88141495D01*
X122783089Y-88118364D01*
X122742290Y-88091104D01*
X122704361Y-88059976D01*
X122669664Y-88025279D01*
X122638536Y-87987350D01*
X122611276Y-87946551D01*
X122588145Y-87903278D01*
X122569368Y-87857945D01*
X122555124Y-87810990D01*
X122545552Y-87762865D01*
X122540742Y-87714034D01*
X122540742Y-87689500D01*
X122540140Y-87689500D01*
X122540140Y-87189500D01*
X122540742Y-87189500D01*
X122540742Y-87164966D01*
X122545552Y-87116135D01*
X122555124Y-87068010D01*
X122569368Y-87021055D01*
X122588145Y-86975722D01*
X122611276Y-86932449D01*
X122638536Y-86891650D01*
X122669664Y-86853721D01*
X122704361Y-86819024D01*
X122742290Y-86787896D01*
X122783089Y-86760636D01*
X122826362Y-86737505D01*
X122871695Y-86718728D01*
X122918650Y-86704484D01*
X122966775Y-86694912D01*
X123015606Y-86690102D01*
X123040140Y-86690102D01*
X123040140Y-86689500D01*
X123540140Y-86689500D01*
X123540140Y-88189500D01*
G37*
%TD*%
%TO.C,JP1*%
G36*
X116567980Y-86723122D02*
G01*
X116592514Y-86723122D01*
X116641345Y-86727932D01*
X116689470Y-86737504D01*
X116736425Y-86751748D01*
X116781758Y-86770525D01*
X116825031Y-86793656D01*
X116865830Y-86820916D01*
X116903759Y-86852044D01*
X116938456Y-86886741D01*
X116969584Y-86924670D01*
X116996844Y-86965469D01*
X117019975Y-87008742D01*
X117038752Y-87054075D01*
X117052996Y-87101030D01*
X117062568Y-87149155D01*
X117067378Y-87197986D01*
X117067378Y-87222520D01*
X117067980Y-87222520D01*
X117067980Y-87722520D01*
X117067378Y-87722520D01*
X117067378Y-87747054D01*
X117062568Y-87795885D01*
X117052996Y-87844010D01*
X117038752Y-87890965D01*
X117019975Y-87936298D01*
X116996844Y-87979571D01*
X116969584Y-88020370D01*
X116938456Y-88058299D01*
X116903759Y-88092996D01*
X116865830Y-88124124D01*
X116825031Y-88151384D01*
X116781758Y-88174515D01*
X116736425Y-88193292D01*
X116689470Y-88207536D01*
X116641345Y-88217108D01*
X116592514Y-88221918D01*
X116567980Y-88221918D01*
X116567980Y-88222520D01*
X116067980Y-88222520D01*
X116067980Y-86722520D01*
X116567980Y-86722520D01*
X116567980Y-86723122D01*
G37*
G36*
X115767980Y-88222520D02*
G01*
X115267980Y-88222520D01*
X115267980Y-88221918D01*
X115243446Y-88221918D01*
X115194615Y-88217108D01*
X115146490Y-88207536D01*
X115099535Y-88193292D01*
X115054202Y-88174515D01*
X115010929Y-88151384D01*
X114970130Y-88124124D01*
X114932201Y-88092996D01*
X114897504Y-88058299D01*
X114866376Y-88020370D01*
X114839116Y-87979571D01*
X114815985Y-87936298D01*
X114797208Y-87890965D01*
X114782964Y-87844010D01*
X114773392Y-87795885D01*
X114768582Y-87747054D01*
X114768582Y-87722520D01*
X114767980Y-87722520D01*
X114767980Y-87222520D01*
X114768582Y-87222520D01*
X114768582Y-87197986D01*
X114773392Y-87149155D01*
X114782964Y-87101030D01*
X114797208Y-87054075D01*
X114815985Y-87008742D01*
X114839116Y-86965469D01*
X114866376Y-86924670D01*
X114897504Y-86886741D01*
X114932201Y-86852044D01*
X114970130Y-86820916D01*
X115010929Y-86793656D01*
X115054202Y-86770525D01*
X115099535Y-86751748D01*
X115146490Y-86737504D01*
X115194615Y-86727932D01*
X115243446Y-86723122D01*
X115267980Y-86723122D01*
X115267980Y-86722520D01*
X115767980Y-86722520D01*
X115767980Y-88222520D01*
G37*
%TD*%
D12*
%TO.C,J2*%
X152400000Y-88900000D03*
X152400000Y-86360000D03*
X152400000Y-83820000D03*
X152400000Y-81280000D03*
X152400000Y-78740000D03*
X152400000Y-76200000D03*
X152400000Y-73660000D03*
X152400000Y-71120000D03*
X152400000Y-68580000D03*
X152400000Y-66040000D03*
D13*
X152400000Y-63500000D03*
%TD*%
D14*
%TO.C,J1*%
X105442500Y-72662460D03*
X105442500Y-78462460D03*
D15*
X105442500Y-79062460D03*
X105442500Y-72062460D03*
D16*
X105442500Y-74562460D03*
D17*
X108142500Y-78062460D03*
D18*
X108142500Y-75562460D03*
X108142500Y-76212460D03*
X108142500Y-76862460D03*
X108142500Y-74262460D03*
X108142500Y-74912460D03*
D17*
X108142500Y-73062460D03*
D16*
X105442500Y-76562460D03*
%TD*%
%TO.C,F1*%
G36*
G01*
X109513800Y-62988880D02*
X109513800Y-65138880D01*
G75*
G02*
X109263800Y-65388880I-250000J0D01*
G01*
X108463800Y-65388880D01*
G75*
G02*
X108213800Y-65138880I0J250000D01*
G01*
X108213800Y-62988880D01*
G75*
G02*
X108463800Y-62738880I250000J0D01*
G01*
X109263800Y-62738880D01*
G75*
G02*
X109513800Y-62988880I0J-250000D01*
G01*
G37*
G36*
G01*
X112613800Y-62988880D02*
X112613800Y-65138880D01*
G75*
G02*
X112363800Y-65388880I-250000J0D01*
G01*
X111563800Y-65388880D01*
G75*
G02*
X111313800Y-65138880I0J250000D01*
G01*
X111313800Y-62988880D01*
G75*
G02*
X111563800Y-62738880I250000J0D01*
G01*
X112363800Y-62738880D01*
G75*
G02*
X112613800Y-62988880I0J-250000D01*
G01*
G37*
%TD*%
%TO.C,D3*%
G36*
G01*
X128091779Y-90688580D02*
X128991781Y-90688580D01*
G75*
G02*
X129241780Y-90938579I0J-249999D01*
G01*
X129241780Y-91588581D01*
G75*
G02*
X128991781Y-91838580I-249999J0D01*
G01*
X128091779Y-91838580D01*
G75*
G02*
X127841780Y-91588581I0J249999D01*
G01*
X127841780Y-90938579D01*
G75*
G02*
X128091779Y-90688580I249999J0D01*
G01*
G37*
G36*
G01*
X128091779Y-88638580D02*
X128991781Y-88638580D01*
G75*
G02*
X129241780Y-88888579I0J-249999D01*
G01*
X129241780Y-89538581D01*
G75*
G02*
X128991781Y-89788580I-249999J0D01*
G01*
X128091779Y-89788580D01*
G75*
G02*
X127841780Y-89538581I0J249999D01*
G01*
X127841780Y-88888579D01*
G75*
G02*
X128091779Y-88638580I249999J0D01*
G01*
G37*
%TD*%
%TO.C,D2*%
G36*
G01*
X131901779Y-90688580D02*
X132801781Y-90688580D01*
G75*
G02*
X133051780Y-90938579I0J-249999D01*
G01*
X133051780Y-91588581D01*
G75*
G02*
X132801781Y-91838580I-249999J0D01*
G01*
X131901779Y-91838580D01*
G75*
G02*
X131651780Y-91588581I0J249999D01*
G01*
X131651780Y-90938579D01*
G75*
G02*
X131901779Y-90688580I249999J0D01*
G01*
G37*
G36*
G01*
X131901779Y-88638580D02*
X132801781Y-88638580D01*
G75*
G02*
X133051780Y-88888579I0J-249999D01*
G01*
X133051780Y-89538581D01*
G75*
G02*
X132801781Y-89788580I-249999J0D01*
G01*
X131901779Y-89788580D01*
G75*
G02*
X131651780Y-89538581I0J249999D01*
G01*
X131651780Y-88888579D01*
G75*
G02*
X131901779Y-88638580I249999J0D01*
G01*
G37*
%TD*%
%TO.C,D1*%
G36*
G01*
X112046600Y-58749779D02*
X112046600Y-59649781D01*
G75*
G02*
X111796601Y-59899780I-249999J0D01*
G01*
X111146599Y-59899780D01*
G75*
G02*
X110896600Y-59649781I0J249999D01*
G01*
X110896600Y-58749779D01*
G75*
G02*
X111146599Y-58499780I249999J0D01*
G01*
X111796601Y-58499780D01*
G75*
G02*
X112046600Y-58749779I0J-249999D01*
G01*
G37*
G36*
G01*
X114096600Y-58749779D02*
X114096600Y-59649781D01*
G75*
G02*
X113846601Y-59899780I-249999J0D01*
G01*
X113196599Y-59899780D01*
G75*
G02*
X112946600Y-59649781I0J249999D01*
G01*
X112946600Y-58749779D01*
G75*
G02*
X113196599Y-58499780I249999J0D01*
G01*
X113846601Y-58499780D01*
G75*
G02*
X114096600Y-58749779I0J-249999D01*
G01*
G37*
%TD*%
%TO.C,C4*%
G36*
G01*
X126689360Y-82014080D02*
X126689360Y-81064080D01*
G75*
G02*
X126939360Y-80814080I250000J0D01*
G01*
X127614360Y-80814080D01*
G75*
G02*
X127864360Y-81064080I0J-250000D01*
G01*
X127864360Y-82014080D01*
G75*
G02*
X127614360Y-82264080I-250000J0D01*
G01*
X126939360Y-82264080D01*
G75*
G02*
X126689360Y-82014080I0J250000D01*
G01*
G37*
G36*
G01*
X124614360Y-82014080D02*
X124614360Y-81064080D01*
G75*
G02*
X124864360Y-80814080I250000J0D01*
G01*
X125539360Y-80814080D01*
G75*
G02*
X125789360Y-81064080I0J-250000D01*
G01*
X125789360Y-82014080D01*
G75*
G02*
X125539360Y-82264080I-250000J0D01*
G01*
X124864360Y-82264080D01*
G75*
G02*
X124614360Y-82014080I0J250000D01*
G01*
G37*
%TD*%
%TO.C,C3*%
G36*
G01*
X122872480Y-65692440D02*
X123822480Y-65692440D01*
G75*
G02*
X124072480Y-65942440I0J-250000D01*
G01*
X124072480Y-66617440D01*
G75*
G02*
X123822480Y-66867440I-250000J0D01*
G01*
X122872480Y-66867440D01*
G75*
G02*
X122622480Y-66617440I0J250000D01*
G01*
X122622480Y-65942440D01*
G75*
G02*
X122872480Y-65692440I250000J0D01*
G01*
G37*
G36*
G01*
X122872480Y-63617440D02*
X123822480Y-63617440D01*
G75*
G02*
X124072480Y-63867440I0J-250000D01*
G01*
X124072480Y-64542440D01*
G75*
G02*
X123822480Y-64792440I-250000J0D01*
G01*
X122872480Y-64792440D01*
G75*
G02*
X122622480Y-64542440I0J250000D01*
G01*
X122622480Y-63867440D01*
G75*
G02*
X122872480Y-63617440I250000J0D01*
G01*
G37*
%TD*%
%TO.C,C2*%
G36*
G01*
X119148840Y-65639100D02*
X120098840Y-65639100D01*
G75*
G02*
X120348840Y-65889100I0J-250000D01*
G01*
X120348840Y-66564100D01*
G75*
G02*
X120098840Y-66814100I-250000J0D01*
G01*
X119148840Y-66814100D01*
G75*
G02*
X118898840Y-66564100I0J250000D01*
G01*
X118898840Y-65889100D01*
G75*
G02*
X119148840Y-65639100I250000J0D01*
G01*
G37*
G36*
G01*
X119148840Y-63564100D02*
X120098840Y-63564100D01*
G75*
G02*
X120348840Y-63814100I0J-250000D01*
G01*
X120348840Y-64489100D01*
G75*
G02*
X120098840Y-64739100I-250000J0D01*
G01*
X119148840Y-64739100D01*
G75*
G02*
X118898840Y-64489100I0J250000D01*
G01*
X118898840Y-63814100D01*
G75*
G02*
X119148840Y-63564100I250000J0D01*
G01*
G37*
%TD*%
%TO.C,C1*%
G36*
G01*
X115369320Y-65626400D02*
X116319320Y-65626400D01*
G75*
G02*
X116569320Y-65876400I0J-250000D01*
G01*
X116569320Y-66551400D01*
G75*
G02*
X116319320Y-66801400I-250000J0D01*
G01*
X115369320Y-66801400D01*
G75*
G02*
X115119320Y-66551400I0J250000D01*
G01*
X115119320Y-65876400D01*
G75*
G02*
X115369320Y-65626400I250000J0D01*
G01*
G37*
G36*
G01*
X115369320Y-63551400D02*
X116319320Y-63551400D01*
G75*
G02*
X116569320Y-63801400I0J-250000D01*
G01*
X116569320Y-64476400D01*
G75*
G02*
X116319320Y-64726400I-250000J0D01*
G01*
X115369320Y-64726400D01*
G75*
G02*
X115119320Y-64476400I0J250000D01*
G01*
X115119320Y-63801400D01*
G75*
G02*
X115369320Y-63551400I250000J0D01*
G01*
G37*
%TD*%
M02*
