%TF.GenerationSoftware,KiCad,Pcbnew,(5.1.8)-1*%
%TF.CreationDate,2020-12-04T21:04:29+03:00*%
%TF.ProjectId,InterfaceG850,496e7465-7266-4616-9365-473835302e6b,rev?*%
%TF.SameCoordinates,Original*%
%TF.FileFunction,Legend,Bot*%
%TF.FilePolarity,Positive*%
%FSLAX46Y46*%
G04 Gerber Fmt 4.6, Leading zero omitted, Abs format (unit mm)*
G04 Created by KiCad (PCBNEW (5.1.8)-1) date 2020-12-04 21:04:29*
%MOMM*%
%LPD*%
G01*
G04 APERTURE LIST*
%ADD10C,0.010000*%
G04 APERTURE END LIST*
D10*
%TO.C,REF\u002A\u002A*%
G36*
X147952006Y-89360338D02*
G01*
X147882598Y-89360710D01*
X147830209Y-89361577D01*
X147792059Y-89363138D01*
X147765371Y-89365595D01*
X147747365Y-89369149D01*
X147735261Y-89374002D01*
X147726281Y-89380353D01*
X147723030Y-89383276D01*
X147703255Y-89414334D01*
X147699694Y-89450020D01*
X147712703Y-89481702D01*
X147718718Y-89488105D01*
X147728447Y-89494313D01*
X147744113Y-89499102D01*
X147768620Y-89502706D01*
X147804873Y-89505356D01*
X147855777Y-89507287D01*
X147924238Y-89508731D01*
X147986829Y-89509610D01*
X148234546Y-89512659D01*
X148237931Y-89577570D01*
X148241317Y-89642481D01*
X148073170Y-89642481D01*
X148000171Y-89643111D01*
X147946729Y-89645745D01*
X147909840Y-89651501D01*
X147886500Y-89661496D01*
X147873706Y-89676848D01*
X147868454Y-89698674D01*
X147867657Y-89718930D01*
X147870135Y-89743784D01*
X147879489Y-89762098D01*
X147898595Y-89774829D01*
X147930330Y-89782933D01*
X147977571Y-89787368D01*
X148043195Y-89789091D01*
X148079013Y-89789237D01*
X148240190Y-89789237D01*
X148240190Y-89947281D01*
X147991834Y-89947281D01*
X147910425Y-89947394D01*
X147848554Y-89947904D01*
X147803180Y-89949062D01*
X147771266Y-89951122D01*
X147749771Y-89954338D01*
X147735655Y-89958964D01*
X147725880Y-89965251D01*
X147720901Y-89969859D01*
X147703822Y-89996752D01*
X147698323Y-90020659D01*
X147706175Y-90049859D01*
X147720901Y-90071459D01*
X147728758Y-90078258D01*
X147738900Y-90083538D01*
X147754056Y-90087490D01*
X147776953Y-90090305D01*
X147810321Y-90092174D01*
X147856887Y-90093290D01*
X147919379Y-90093843D01*
X148000526Y-90094025D01*
X148042634Y-90094037D01*
X148132810Y-90093957D01*
X148203136Y-90093590D01*
X148256341Y-90092744D01*
X148295152Y-90091228D01*
X148322299Y-90088851D01*
X148340510Y-90085421D01*
X148352512Y-90080746D01*
X148361034Y-90074636D01*
X148364368Y-90071459D01*
X148370967Y-90063862D01*
X148376139Y-90054062D01*
X148380058Y-90039431D01*
X148382896Y-90017344D01*
X148384827Y-89985174D01*
X148386024Y-89940295D01*
X148386660Y-89880081D01*
X148386909Y-89801905D01*
X148386946Y-89729115D01*
X148386912Y-89635899D01*
X148386677Y-89562623D01*
X148386042Y-89506650D01*
X148384806Y-89465343D01*
X148382768Y-89436064D01*
X148379729Y-89416176D01*
X148375489Y-89403042D01*
X148369847Y-89394024D01*
X148362603Y-89386485D01*
X148360818Y-89384804D01*
X148352157Y-89377364D01*
X148342094Y-89371601D01*
X148327837Y-89367304D01*
X148306595Y-89364256D01*
X148275576Y-89362243D01*
X148231989Y-89361052D01*
X148173043Y-89360467D01*
X148095946Y-89360275D01*
X148041213Y-89360259D01*
X147952006Y-89360338D01*
G37*
X147952006Y-89360338D02*
X147882598Y-89360710D01*
X147830209Y-89361577D01*
X147792059Y-89363138D01*
X147765371Y-89365595D01*
X147747365Y-89369149D01*
X147735261Y-89374002D01*
X147726281Y-89380353D01*
X147723030Y-89383276D01*
X147703255Y-89414334D01*
X147699694Y-89450020D01*
X147712703Y-89481702D01*
X147718718Y-89488105D01*
X147728447Y-89494313D01*
X147744113Y-89499102D01*
X147768620Y-89502706D01*
X147804873Y-89505356D01*
X147855777Y-89507287D01*
X147924238Y-89508731D01*
X147986829Y-89509610D01*
X148234546Y-89512659D01*
X148237931Y-89577570D01*
X148241317Y-89642481D01*
X148073170Y-89642481D01*
X148000171Y-89643111D01*
X147946729Y-89645745D01*
X147909840Y-89651501D01*
X147886500Y-89661496D01*
X147873706Y-89676848D01*
X147868454Y-89698674D01*
X147867657Y-89718930D01*
X147870135Y-89743784D01*
X147879489Y-89762098D01*
X147898595Y-89774829D01*
X147930330Y-89782933D01*
X147977571Y-89787368D01*
X148043195Y-89789091D01*
X148079013Y-89789237D01*
X148240190Y-89789237D01*
X148240190Y-89947281D01*
X147991834Y-89947281D01*
X147910425Y-89947394D01*
X147848554Y-89947904D01*
X147803180Y-89949062D01*
X147771266Y-89951122D01*
X147749771Y-89954338D01*
X147735655Y-89958964D01*
X147725880Y-89965251D01*
X147720901Y-89969859D01*
X147703822Y-89996752D01*
X147698323Y-90020659D01*
X147706175Y-90049859D01*
X147720901Y-90071459D01*
X147728758Y-90078258D01*
X147738900Y-90083538D01*
X147754056Y-90087490D01*
X147776953Y-90090305D01*
X147810321Y-90092174D01*
X147856887Y-90093290D01*
X147919379Y-90093843D01*
X148000526Y-90094025D01*
X148042634Y-90094037D01*
X148132810Y-90093957D01*
X148203136Y-90093590D01*
X148256341Y-90092744D01*
X148295152Y-90091228D01*
X148322299Y-90088851D01*
X148340510Y-90085421D01*
X148352512Y-90080746D01*
X148361034Y-90074636D01*
X148364368Y-90071459D01*
X148370967Y-90063862D01*
X148376139Y-90054062D01*
X148380058Y-90039431D01*
X148382896Y-90017344D01*
X148384827Y-89985174D01*
X148386024Y-89940295D01*
X148386660Y-89880081D01*
X148386909Y-89801905D01*
X148386946Y-89729115D01*
X148386912Y-89635899D01*
X148386677Y-89562623D01*
X148386042Y-89506650D01*
X148384806Y-89465343D01*
X148382768Y-89436064D01*
X148379729Y-89416176D01*
X148375489Y-89403042D01*
X148369847Y-89394024D01*
X148362603Y-89386485D01*
X148360818Y-89384804D01*
X148352157Y-89377364D01*
X148342094Y-89371601D01*
X148327837Y-89367304D01*
X148306595Y-89364256D01*
X148275576Y-89362243D01*
X148231989Y-89361052D01*
X148173043Y-89360467D01*
X148095946Y-89360275D01*
X148041213Y-89360259D01*
X147952006Y-89360338D01*
G36*
X149206663Y-83198689D02*
G01*
X148942140Y-83198725D01*
X148819008Y-83198730D01*
X146848109Y-83198730D01*
X146848109Y-83314910D01*
X146835709Y-83456291D01*
X146798284Y-83586684D01*
X146735497Y-83706862D01*
X146647014Y-83817602D01*
X146617077Y-83847511D01*
X146509386Y-83932348D01*
X146390645Y-83994221D01*
X146264380Y-84033159D01*
X146134117Y-84049190D01*
X146003385Y-84042342D01*
X145875708Y-84012643D01*
X145754615Y-83960120D01*
X145643632Y-83884803D01*
X145593788Y-83839363D01*
X145500903Y-83727952D01*
X145432793Y-83605435D01*
X145390049Y-83473215D01*
X145373267Y-83332692D01*
X145373044Y-83318867D01*
X145372164Y-83198734D01*
X145319363Y-83198732D01*
X145272524Y-83205089D01*
X145229737Y-83220556D01*
X145226909Y-83222154D01*
X145217245Y-83227168D01*
X145208371Y-83231073D01*
X145200255Y-83235007D01*
X145192863Y-83240106D01*
X145186165Y-83247508D01*
X145180128Y-83258351D01*
X145174721Y-83273772D01*
X145169910Y-83294909D01*
X145165665Y-83322899D01*
X145161952Y-83358879D01*
X145158741Y-83403987D01*
X145155998Y-83459360D01*
X145153692Y-83526137D01*
X145151791Y-83605453D01*
X145150262Y-83698447D01*
X145149074Y-83806257D01*
X145148194Y-83930019D01*
X145147590Y-84070871D01*
X145147231Y-84229950D01*
X145147085Y-84408395D01*
X145147118Y-84607342D01*
X145147300Y-84827929D01*
X145147597Y-85071293D01*
X145147979Y-85338572D01*
X145148412Y-85630903D01*
X145148865Y-85949424D01*
X145148918Y-85988230D01*
X145149324Y-86308782D01*
X145149669Y-86603012D01*
X145149989Y-86872056D01*
X145150320Y-87117052D01*
X145150699Y-87339137D01*
X145151163Y-87539447D01*
X145151748Y-87719119D01*
X145152490Y-87879290D01*
X145153426Y-88021098D01*
X145154593Y-88145679D01*
X145156027Y-88254170D01*
X145157764Y-88347707D01*
X145159842Y-88427429D01*
X145162296Y-88494472D01*
X145165164Y-88549973D01*
X145168481Y-88595068D01*
X145172284Y-88630895D01*
X145176610Y-88658591D01*
X145181495Y-88679293D01*
X145186975Y-88694137D01*
X145193088Y-88704260D01*
X145199870Y-88710800D01*
X145207357Y-88714893D01*
X145215586Y-88717676D01*
X145224593Y-88720287D01*
X145234415Y-88723862D01*
X145236814Y-88724950D01*
X145244355Y-88727396D01*
X145256976Y-88729642D01*
X145275779Y-88731698D01*
X145301867Y-88733572D01*
X145336342Y-88735271D01*
X145380305Y-88736803D01*
X145434859Y-88738177D01*
X145501105Y-88739400D01*
X145580146Y-88740481D01*
X145673083Y-88741427D01*
X145781019Y-88742247D01*
X145905056Y-88742947D01*
X146046296Y-88743538D01*
X146205841Y-88744025D01*
X146384792Y-88744419D01*
X146584252Y-88744725D01*
X146805324Y-88744953D01*
X147049108Y-88745110D01*
X147316707Y-88745205D01*
X147609223Y-88745245D01*
X147927759Y-88745238D01*
X148030941Y-88745228D01*
X148356543Y-88745176D01*
X148655801Y-88745091D01*
X148929829Y-88744963D01*
X149179744Y-88744785D01*
X149406660Y-88744548D01*
X149611693Y-88744242D01*
X149795958Y-88743860D01*
X149960570Y-88743392D01*
X150106645Y-88742830D01*
X150235296Y-88742165D01*
X150347641Y-88741388D01*
X150444794Y-88740491D01*
X150527870Y-88739465D01*
X150597984Y-88738301D01*
X150656252Y-88736991D01*
X150703789Y-88735525D01*
X150741710Y-88733896D01*
X150771130Y-88732093D01*
X150793165Y-88730110D01*
X150808930Y-88727936D01*
X150819540Y-88725563D01*
X150825324Y-88723391D01*
X150835604Y-88719056D01*
X150845042Y-88715859D01*
X150853675Y-88712665D01*
X150861539Y-88708338D01*
X150868668Y-88701744D01*
X150875099Y-88691747D01*
X150880867Y-88677212D01*
X150886009Y-88657003D01*
X150890560Y-88629985D01*
X150894555Y-88595023D01*
X150898031Y-88550981D01*
X150901022Y-88496724D01*
X150903566Y-88431117D01*
X150905697Y-88353024D01*
X150907452Y-88261310D01*
X150908865Y-88154840D01*
X150909235Y-88113973D01*
X150542804Y-88113973D01*
X149247654Y-88113973D01*
X149272575Y-88076217D01*
X149297367Y-88037417D01*
X149318360Y-88000469D01*
X149335855Y-87962788D01*
X149350150Y-87921788D01*
X149361543Y-87874883D01*
X149370333Y-87819487D01*
X149376818Y-87753016D01*
X149381297Y-87672883D01*
X149384070Y-87576502D01*
X149385433Y-87461289D01*
X149385687Y-87324657D01*
X149385129Y-87164020D01*
X149384813Y-87104382D01*
X149381245Y-86465041D01*
X148976218Y-87016449D01*
X148861474Y-87172876D01*
X148762063Y-87309088D01*
X148676910Y-87426890D01*
X148604942Y-87528084D01*
X148545086Y-87614477D01*
X148496268Y-87687874D01*
X148457415Y-87750077D01*
X148427454Y-87802893D01*
X148405311Y-87848125D01*
X148389913Y-87887578D01*
X148380186Y-87923058D01*
X148375057Y-87956368D01*
X148373452Y-87989313D01*
X148374299Y-88023697D01*
X148374515Y-88028019D01*
X148378974Y-88114031D01*
X146959612Y-88113973D01*
X147065185Y-88007522D01*
X147093833Y-87978406D01*
X147121010Y-87950076D01*
X147147909Y-87920968D01*
X147175723Y-87889520D01*
X147205645Y-87854169D01*
X147238866Y-87813354D01*
X147276581Y-87765511D01*
X147319980Y-87709079D01*
X147370258Y-87642494D01*
X147428608Y-87564195D01*
X147496220Y-87472619D01*
X147574289Y-87366204D01*
X147664008Y-87243387D01*
X147766568Y-87102605D01*
X147883162Y-86942297D01*
X147978729Y-86810798D01*
X148098669Y-86645596D01*
X148203300Y-86501152D01*
X148293568Y-86376094D01*
X148370423Y-86269052D01*
X148434811Y-86178654D01*
X148487681Y-86103529D01*
X148529980Y-86042304D01*
X148562656Y-85993610D01*
X148586658Y-85956074D01*
X148602933Y-85928325D01*
X148612428Y-85908992D01*
X148616093Y-85896703D01*
X148614991Y-85890242D01*
X148601644Y-85873048D01*
X148572786Y-85836655D01*
X148530160Y-85783224D01*
X148475505Y-85714919D01*
X148410564Y-85633903D01*
X148337078Y-85542340D01*
X148256788Y-85442392D01*
X148171435Y-85336224D01*
X148082760Y-85225997D01*
X147992506Y-85113876D01*
X147942864Y-85052244D01*
X146710293Y-85052244D01*
X146659066Y-85144919D01*
X146607839Y-85237595D01*
X146607839Y-87928622D01*
X146659066Y-88021298D01*
X146710293Y-88113973D01*
X146104316Y-88113973D01*
X145959654Y-88113931D01*
X145840164Y-88113741D01*
X145743562Y-88113308D01*
X145667562Y-88112536D01*
X145609877Y-88111330D01*
X145568221Y-88109594D01*
X145540309Y-88107232D01*
X145523855Y-88104150D01*
X145516572Y-88100251D01*
X145516175Y-88095440D01*
X145520378Y-88089622D01*
X145520421Y-88089574D01*
X145537733Y-88064532D01*
X145560656Y-88023815D01*
X145580901Y-87983168D01*
X145619299Y-87901162D01*
X145627131Y-85052244D01*
X146710293Y-85052244D01*
X147942864Y-85052244D01*
X147902413Y-85002024D01*
X147814222Y-84892604D01*
X147729674Y-84787778D01*
X147650512Y-84689711D01*
X147578476Y-84600566D01*
X147515307Y-84522505D01*
X147462747Y-84457692D01*
X147422537Y-84408290D01*
X147398920Y-84379487D01*
X147307210Y-84271778D01*
X147218980Y-84174580D01*
X147137323Y-84091076D01*
X147065330Y-84024448D01*
X147014239Y-83983599D01*
X146953827Y-83940135D01*
X148343218Y-83940135D01*
X148342828Y-84021666D01*
X148346711Y-84081606D01*
X148361310Y-84137177D01*
X148383908Y-84189855D01*
X148398598Y-84219615D01*
X148414392Y-84249103D01*
X148432734Y-84280276D01*
X148455065Y-84315093D01*
X148482829Y-84355510D01*
X148517469Y-84403486D01*
X148560427Y-84460978D01*
X148613147Y-84529943D01*
X148677071Y-84612339D01*
X148753641Y-84710124D01*
X148844301Y-84825255D01*
X148950494Y-84959690D01*
X148962488Y-84974859D01*
X149381245Y-85504412D01*
X149385298Y-84917922D01*
X149386115Y-84742251D01*
X149385941Y-84593532D01*
X149384769Y-84471275D01*
X149382589Y-84374989D01*
X149379394Y-84304183D01*
X149375176Y-84258369D01*
X149373758Y-84249679D01*
X149351511Y-84158135D01*
X149322363Y-84075608D01*
X149289102Y-84009253D01*
X149269120Y-83981110D01*
X149234642Y-83940135D01*
X149888834Y-83940135D01*
X150044889Y-83940269D01*
X150175387Y-83940703D01*
X150282230Y-83941489D01*
X150367318Y-83942676D01*
X150432555Y-83944317D01*
X150479841Y-83946461D01*
X150511077Y-83949159D01*
X150528166Y-83952462D01*
X150533008Y-83956421D01*
X150532673Y-83957298D01*
X150518805Y-83978231D01*
X150495652Y-84011412D01*
X150483674Y-84028193D01*
X150471289Y-84044940D01*
X150460157Y-84059915D01*
X150450208Y-84074594D01*
X150441371Y-84090449D01*
X150433577Y-84108955D01*
X150426755Y-84131585D01*
X150420836Y-84159813D01*
X150415749Y-84195113D01*
X150411424Y-84238958D01*
X150407791Y-84292822D01*
X150404780Y-84358180D01*
X150402321Y-84436504D01*
X150400343Y-84529268D01*
X150398778Y-84637947D01*
X150397554Y-84764013D01*
X150396601Y-84908942D01*
X150395850Y-85074206D01*
X150395231Y-85261279D01*
X150394672Y-85471635D01*
X150394105Y-85706748D01*
X150393575Y-85922741D01*
X150393075Y-86163535D01*
X150392815Y-86393274D01*
X150392788Y-86610493D01*
X150392987Y-86813722D01*
X150393406Y-87001496D01*
X150394038Y-87172345D01*
X150394876Y-87324803D01*
X150395912Y-87457403D01*
X150397140Y-87568676D01*
X150398553Y-87657156D01*
X150400145Y-87721375D01*
X150401907Y-87759865D01*
X150402241Y-87763933D01*
X150414386Y-87857248D01*
X150433347Y-87932190D01*
X150462222Y-87997594D01*
X150504110Y-88062293D01*
X150509349Y-88069352D01*
X150542804Y-88113973D01*
X150909235Y-88113973D01*
X150909974Y-88032479D01*
X150910813Y-87893090D01*
X150911418Y-87735539D01*
X150911825Y-87558691D01*
X150912070Y-87361410D01*
X150912187Y-87142560D01*
X150912215Y-86901007D01*
X150912187Y-86635615D01*
X150912140Y-86345249D01*
X150912110Y-86028773D01*
X150912109Y-85965946D01*
X150912092Y-85646137D01*
X150912032Y-85352661D01*
X150911922Y-85084390D01*
X150911753Y-84840198D01*
X150911517Y-84618957D01*
X150911204Y-84419540D01*
X150910805Y-84240820D01*
X150910313Y-84081671D01*
X150909717Y-83940966D01*
X150909010Y-83817576D01*
X150908183Y-83710376D01*
X150907227Y-83618238D01*
X150906133Y-83540035D01*
X150904893Y-83474641D01*
X150903498Y-83420928D01*
X150901938Y-83377769D01*
X150900206Y-83344037D01*
X150898292Y-83318605D01*
X150896188Y-83300347D01*
X150893886Y-83288134D01*
X150891375Y-83280841D01*
X150891283Y-83280659D01*
X150886112Y-83269518D01*
X150881805Y-83259431D01*
X150877041Y-83250346D01*
X150870498Y-83242212D01*
X150860855Y-83234976D01*
X150846791Y-83228586D01*
X150826983Y-83222989D01*
X150800111Y-83218133D01*
X150764853Y-83213966D01*
X150719888Y-83210436D01*
X150663894Y-83207491D01*
X150595549Y-83205077D01*
X150513534Y-83203144D01*
X150416525Y-83201638D01*
X150303202Y-83200508D01*
X150172243Y-83199702D01*
X150022327Y-83199166D01*
X149852133Y-83198849D01*
X149660338Y-83198699D01*
X149445622Y-83198663D01*
X149206663Y-83198689D01*
G37*
X149206663Y-83198689D02*
X148942140Y-83198725D01*
X148819008Y-83198730D01*
X146848109Y-83198730D01*
X146848109Y-83314910D01*
X146835709Y-83456291D01*
X146798284Y-83586684D01*
X146735497Y-83706862D01*
X146647014Y-83817602D01*
X146617077Y-83847511D01*
X146509386Y-83932348D01*
X146390645Y-83994221D01*
X146264380Y-84033159D01*
X146134117Y-84049190D01*
X146003385Y-84042342D01*
X145875708Y-84012643D01*
X145754615Y-83960120D01*
X145643632Y-83884803D01*
X145593788Y-83839363D01*
X145500903Y-83727952D01*
X145432793Y-83605435D01*
X145390049Y-83473215D01*
X145373267Y-83332692D01*
X145373044Y-83318867D01*
X145372164Y-83198734D01*
X145319363Y-83198732D01*
X145272524Y-83205089D01*
X145229737Y-83220556D01*
X145226909Y-83222154D01*
X145217245Y-83227168D01*
X145208371Y-83231073D01*
X145200255Y-83235007D01*
X145192863Y-83240106D01*
X145186165Y-83247508D01*
X145180128Y-83258351D01*
X145174721Y-83273772D01*
X145169910Y-83294909D01*
X145165665Y-83322899D01*
X145161952Y-83358879D01*
X145158741Y-83403987D01*
X145155998Y-83459360D01*
X145153692Y-83526137D01*
X145151791Y-83605453D01*
X145150262Y-83698447D01*
X145149074Y-83806257D01*
X145148194Y-83930019D01*
X145147590Y-84070871D01*
X145147231Y-84229950D01*
X145147085Y-84408395D01*
X145147118Y-84607342D01*
X145147300Y-84827929D01*
X145147597Y-85071293D01*
X145147979Y-85338572D01*
X145148412Y-85630903D01*
X145148865Y-85949424D01*
X145148918Y-85988230D01*
X145149324Y-86308782D01*
X145149669Y-86603012D01*
X145149989Y-86872056D01*
X145150320Y-87117052D01*
X145150699Y-87339137D01*
X145151163Y-87539447D01*
X145151748Y-87719119D01*
X145152490Y-87879290D01*
X145153426Y-88021098D01*
X145154593Y-88145679D01*
X145156027Y-88254170D01*
X145157764Y-88347707D01*
X145159842Y-88427429D01*
X145162296Y-88494472D01*
X145165164Y-88549973D01*
X145168481Y-88595068D01*
X145172284Y-88630895D01*
X145176610Y-88658591D01*
X145181495Y-88679293D01*
X145186975Y-88694137D01*
X145193088Y-88704260D01*
X145199870Y-88710800D01*
X145207357Y-88714893D01*
X145215586Y-88717676D01*
X145224593Y-88720287D01*
X145234415Y-88723862D01*
X145236814Y-88724950D01*
X145244355Y-88727396D01*
X145256976Y-88729642D01*
X145275779Y-88731698D01*
X145301867Y-88733572D01*
X145336342Y-88735271D01*
X145380305Y-88736803D01*
X145434859Y-88738177D01*
X145501105Y-88739400D01*
X145580146Y-88740481D01*
X145673083Y-88741427D01*
X145781019Y-88742247D01*
X145905056Y-88742947D01*
X146046296Y-88743538D01*
X146205841Y-88744025D01*
X146384792Y-88744419D01*
X146584252Y-88744725D01*
X146805324Y-88744953D01*
X147049108Y-88745110D01*
X147316707Y-88745205D01*
X147609223Y-88745245D01*
X147927759Y-88745238D01*
X148030941Y-88745228D01*
X148356543Y-88745176D01*
X148655801Y-88745091D01*
X148929829Y-88744963D01*
X149179744Y-88744785D01*
X149406660Y-88744548D01*
X149611693Y-88744242D01*
X149795958Y-88743860D01*
X149960570Y-88743392D01*
X150106645Y-88742830D01*
X150235296Y-88742165D01*
X150347641Y-88741388D01*
X150444794Y-88740491D01*
X150527870Y-88739465D01*
X150597984Y-88738301D01*
X150656252Y-88736991D01*
X150703789Y-88735525D01*
X150741710Y-88733896D01*
X150771130Y-88732093D01*
X150793165Y-88730110D01*
X150808930Y-88727936D01*
X150819540Y-88725563D01*
X150825324Y-88723391D01*
X150835604Y-88719056D01*
X150845042Y-88715859D01*
X150853675Y-88712665D01*
X150861539Y-88708338D01*
X150868668Y-88701744D01*
X150875099Y-88691747D01*
X150880867Y-88677212D01*
X150886009Y-88657003D01*
X150890560Y-88629985D01*
X150894555Y-88595023D01*
X150898031Y-88550981D01*
X150901022Y-88496724D01*
X150903566Y-88431117D01*
X150905697Y-88353024D01*
X150907452Y-88261310D01*
X150908865Y-88154840D01*
X150909235Y-88113973D01*
X150542804Y-88113973D01*
X149247654Y-88113973D01*
X149272575Y-88076217D01*
X149297367Y-88037417D01*
X149318360Y-88000469D01*
X149335855Y-87962788D01*
X149350150Y-87921788D01*
X149361543Y-87874883D01*
X149370333Y-87819487D01*
X149376818Y-87753016D01*
X149381297Y-87672883D01*
X149384070Y-87576502D01*
X149385433Y-87461289D01*
X149385687Y-87324657D01*
X149385129Y-87164020D01*
X149384813Y-87104382D01*
X149381245Y-86465041D01*
X148976218Y-87016449D01*
X148861474Y-87172876D01*
X148762063Y-87309088D01*
X148676910Y-87426890D01*
X148604942Y-87528084D01*
X148545086Y-87614477D01*
X148496268Y-87687874D01*
X148457415Y-87750077D01*
X148427454Y-87802893D01*
X148405311Y-87848125D01*
X148389913Y-87887578D01*
X148380186Y-87923058D01*
X148375057Y-87956368D01*
X148373452Y-87989313D01*
X148374299Y-88023697D01*
X148374515Y-88028019D01*
X148378974Y-88114031D01*
X146959612Y-88113973D01*
X147065185Y-88007522D01*
X147093833Y-87978406D01*
X147121010Y-87950076D01*
X147147909Y-87920968D01*
X147175723Y-87889520D01*
X147205645Y-87854169D01*
X147238866Y-87813354D01*
X147276581Y-87765511D01*
X147319980Y-87709079D01*
X147370258Y-87642494D01*
X147428608Y-87564195D01*
X147496220Y-87472619D01*
X147574289Y-87366204D01*
X147664008Y-87243387D01*
X147766568Y-87102605D01*
X147883162Y-86942297D01*
X147978729Y-86810798D01*
X148098669Y-86645596D01*
X148203300Y-86501152D01*
X148293568Y-86376094D01*
X148370423Y-86269052D01*
X148434811Y-86178654D01*
X148487681Y-86103529D01*
X148529980Y-86042304D01*
X148562656Y-85993610D01*
X148586658Y-85956074D01*
X148602933Y-85928325D01*
X148612428Y-85908992D01*
X148616093Y-85896703D01*
X148614991Y-85890242D01*
X148601644Y-85873048D01*
X148572786Y-85836655D01*
X148530160Y-85783224D01*
X148475505Y-85714919D01*
X148410564Y-85633903D01*
X148337078Y-85542340D01*
X148256788Y-85442392D01*
X148171435Y-85336224D01*
X148082760Y-85225997D01*
X147992506Y-85113876D01*
X147942864Y-85052244D01*
X146710293Y-85052244D01*
X146659066Y-85144919D01*
X146607839Y-85237595D01*
X146607839Y-87928622D01*
X146659066Y-88021298D01*
X146710293Y-88113973D01*
X146104316Y-88113973D01*
X145959654Y-88113931D01*
X145840164Y-88113741D01*
X145743562Y-88113308D01*
X145667562Y-88112536D01*
X145609877Y-88111330D01*
X145568221Y-88109594D01*
X145540309Y-88107232D01*
X145523855Y-88104150D01*
X145516572Y-88100251D01*
X145516175Y-88095440D01*
X145520378Y-88089622D01*
X145520421Y-88089574D01*
X145537733Y-88064532D01*
X145560656Y-88023815D01*
X145580901Y-87983168D01*
X145619299Y-87901162D01*
X145627131Y-85052244D01*
X146710293Y-85052244D01*
X147942864Y-85052244D01*
X147902413Y-85002024D01*
X147814222Y-84892604D01*
X147729674Y-84787778D01*
X147650512Y-84689711D01*
X147578476Y-84600566D01*
X147515307Y-84522505D01*
X147462747Y-84457692D01*
X147422537Y-84408290D01*
X147398920Y-84379487D01*
X147307210Y-84271778D01*
X147218980Y-84174580D01*
X147137323Y-84091076D01*
X147065330Y-84024448D01*
X147014239Y-83983599D01*
X146953827Y-83940135D01*
X148343218Y-83940135D01*
X148342828Y-84021666D01*
X148346711Y-84081606D01*
X148361310Y-84137177D01*
X148383908Y-84189855D01*
X148398598Y-84219615D01*
X148414392Y-84249103D01*
X148432734Y-84280276D01*
X148455065Y-84315093D01*
X148482829Y-84355510D01*
X148517469Y-84403486D01*
X148560427Y-84460978D01*
X148613147Y-84529943D01*
X148677071Y-84612339D01*
X148753641Y-84710124D01*
X148844301Y-84825255D01*
X148950494Y-84959690D01*
X148962488Y-84974859D01*
X149381245Y-85504412D01*
X149385298Y-84917922D01*
X149386115Y-84742251D01*
X149385941Y-84593532D01*
X149384769Y-84471275D01*
X149382589Y-84374989D01*
X149379394Y-84304183D01*
X149375176Y-84258369D01*
X149373758Y-84249679D01*
X149351511Y-84158135D01*
X149322363Y-84075608D01*
X149289102Y-84009253D01*
X149269120Y-83981110D01*
X149234642Y-83940135D01*
X149888834Y-83940135D01*
X150044889Y-83940269D01*
X150175387Y-83940703D01*
X150282230Y-83941489D01*
X150367318Y-83942676D01*
X150432555Y-83944317D01*
X150479841Y-83946461D01*
X150511077Y-83949159D01*
X150528166Y-83952462D01*
X150533008Y-83956421D01*
X150532673Y-83957298D01*
X150518805Y-83978231D01*
X150495652Y-84011412D01*
X150483674Y-84028193D01*
X150471289Y-84044940D01*
X150460157Y-84059915D01*
X150450208Y-84074594D01*
X150441371Y-84090449D01*
X150433577Y-84108955D01*
X150426755Y-84131585D01*
X150420836Y-84159813D01*
X150415749Y-84195113D01*
X150411424Y-84238958D01*
X150407791Y-84292822D01*
X150404780Y-84358180D01*
X150402321Y-84436504D01*
X150400343Y-84529268D01*
X150398778Y-84637947D01*
X150397554Y-84764013D01*
X150396601Y-84908942D01*
X150395850Y-85074206D01*
X150395231Y-85261279D01*
X150394672Y-85471635D01*
X150394105Y-85706748D01*
X150393575Y-85922741D01*
X150393075Y-86163535D01*
X150392815Y-86393274D01*
X150392788Y-86610493D01*
X150392987Y-86813722D01*
X150393406Y-87001496D01*
X150394038Y-87172345D01*
X150394876Y-87324803D01*
X150395912Y-87457403D01*
X150397140Y-87568676D01*
X150398553Y-87657156D01*
X150400145Y-87721375D01*
X150401907Y-87759865D01*
X150402241Y-87763933D01*
X150414386Y-87857248D01*
X150433347Y-87932190D01*
X150462222Y-87997594D01*
X150504110Y-88062293D01*
X150509349Y-88069352D01*
X150542804Y-88113973D01*
X150909235Y-88113973D01*
X150909974Y-88032479D01*
X150910813Y-87893090D01*
X150911418Y-87735539D01*
X150911825Y-87558691D01*
X150912070Y-87361410D01*
X150912187Y-87142560D01*
X150912215Y-86901007D01*
X150912187Y-86635615D01*
X150912140Y-86345249D01*
X150912110Y-86028773D01*
X150912109Y-85965946D01*
X150912092Y-85646137D01*
X150912032Y-85352661D01*
X150911922Y-85084390D01*
X150911753Y-84840198D01*
X150911517Y-84618957D01*
X150911204Y-84419540D01*
X150910805Y-84240820D01*
X150910313Y-84081671D01*
X150909717Y-83940966D01*
X150909010Y-83817576D01*
X150908183Y-83710376D01*
X150907227Y-83618238D01*
X150906133Y-83540035D01*
X150904893Y-83474641D01*
X150903498Y-83420928D01*
X150901938Y-83377769D01*
X150900206Y-83344037D01*
X150898292Y-83318605D01*
X150896188Y-83300347D01*
X150893886Y-83288134D01*
X150891375Y-83280841D01*
X150891283Y-83280659D01*
X150886112Y-83269518D01*
X150881805Y-83259431D01*
X150877041Y-83250346D01*
X150870498Y-83242212D01*
X150860855Y-83234976D01*
X150846791Y-83228586D01*
X150826983Y-83222989D01*
X150800111Y-83218133D01*
X150764853Y-83213966D01*
X150719888Y-83210436D01*
X150663894Y-83207491D01*
X150595549Y-83205077D01*
X150513534Y-83203144D01*
X150416525Y-83201638D01*
X150303202Y-83200508D01*
X150172243Y-83199702D01*
X150022327Y-83199166D01*
X149852133Y-83198849D01*
X149660338Y-83198699D01*
X149445622Y-83198663D01*
X149206663Y-83198689D01*
%TD*%
M02*
