%TF.GenerationSoftware,KiCad,Pcbnew,(5.1.8)-1*%
%TF.CreationDate,2020-12-04T21:04:29+03:00*%
%TF.ProjectId,InterfaceG850,496e7465-7266-4616-9365-473835302e6b,rev?*%
%TF.SameCoordinates,Original*%
%TF.FileFunction,Soldermask,Bot*%
%TF.FilePolarity,Negative*%
%FSLAX46Y46*%
G04 Gerber Fmt 4.6, Leading zero omitted, Abs format (unit mm)*
G04 Created by KiCad (PCBNEW (5.1.8)-1) date 2020-12-04 21:04:29*
%MOMM*%
%LPD*%
G01*
G04 APERTURE LIST*
%ADD10C,0.100000*%
%ADD11C,0.010000*%
%ADD12O,1.700000X1.700000*%
%ADD13R,1.700000X1.700000*%
%ADD14O,1.900000X1.200000*%
%ADD15C,1.450000*%
G04 APERTURE END LIST*
D10*
G36*
X122930920Y-70993000D02*
G01*
X115310920Y-70993000D01*
X115310920Y-67945000D01*
X122930920Y-67945000D01*
X122930920Y-70993000D01*
G37*
X122930920Y-70993000D02*
X115310920Y-70993000D01*
X115310920Y-67945000D01*
X122930920Y-67945000D01*
X122930920Y-70993000D01*
D11*
%TO.C,REF\u002A\u002A*%
G36*
X149360583Y-89360258D02*
G01*
X149321101Y-89360659D01*
X149205412Y-89363451D01*
X149108523Y-89371742D01*
X149027131Y-89386424D01*
X148957935Y-89408385D01*
X148897632Y-89438514D01*
X148842920Y-89477702D01*
X148823379Y-89494724D01*
X148790962Y-89534555D01*
X148761732Y-89588605D01*
X148739203Y-89648515D01*
X148726891Y-89705931D01*
X148725612Y-89727148D01*
X148733629Y-89785961D01*
X148755111Y-89850205D01*
X148786211Y-89911013D01*
X148823078Y-89959522D01*
X148829066Y-89965374D01*
X148879791Y-90006513D01*
X148935337Y-90038627D01*
X148998908Y-90062557D01*
X149073706Y-90079145D01*
X149162934Y-90089233D01*
X149269794Y-90093661D01*
X149318740Y-90094037D01*
X149380974Y-90093737D01*
X149424740Y-90092484D01*
X149454143Y-90089746D01*
X149473291Y-90084993D01*
X149486289Y-90077693D01*
X149493257Y-90071459D01*
X149499838Y-90063886D01*
X149505000Y-90054116D01*
X149508915Y-90039532D01*
X149511755Y-90017518D01*
X149513692Y-89985456D01*
X149514896Y-89940728D01*
X149515540Y-89880718D01*
X149515795Y-89802809D01*
X149515834Y-89727148D01*
X149516082Y-89626233D01*
X149516029Y-89545619D01*
X149515069Y-89507014D01*
X149369079Y-89507014D01*
X149369079Y-89947281D01*
X149275946Y-89947196D01*
X149219905Y-89945588D01*
X149161211Y-89941448D01*
X149112240Y-89935656D01*
X149110750Y-89935418D01*
X149031604Y-89916282D01*
X148970214Y-89886479D01*
X148923517Y-89844070D01*
X148893847Y-89798153D01*
X148875565Y-89747218D01*
X148876983Y-89699392D01*
X148898200Y-89648125D01*
X148939701Y-89595091D01*
X148997210Y-89555792D01*
X149071962Y-89529523D01*
X149121920Y-89520227D01*
X149178628Y-89513699D01*
X149238731Y-89508974D01*
X149289851Y-89507009D01*
X149292879Y-89507000D01*
X149369079Y-89507014D01*
X149515069Y-89507014D01*
X149514472Y-89483043D01*
X149510210Y-89436247D01*
X149502042Y-89402970D01*
X149488768Y-89380951D01*
X149469186Y-89367931D01*
X149442095Y-89361649D01*
X149406294Y-89359845D01*
X149360583Y-89360258D01*
G37*
X149360583Y-89360258D02*
X149321101Y-89360659D01*
X149205412Y-89363451D01*
X149108523Y-89371742D01*
X149027131Y-89386424D01*
X148957935Y-89408385D01*
X148897632Y-89438514D01*
X148842920Y-89477702D01*
X148823379Y-89494724D01*
X148790962Y-89534555D01*
X148761732Y-89588605D01*
X148739203Y-89648515D01*
X148726891Y-89705931D01*
X148725612Y-89727148D01*
X148733629Y-89785961D01*
X148755111Y-89850205D01*
X148786211Y-89911013D01*
X148823078Y-89959522D01*
X148829066Y-89965374D01*
X148879791Y-90006513D01*
X148935337Y-90038627D01*
X148998908Y-90062557D01*
X149073706Y-90079145D01*
X149162934Y-90089233D01*
X149269794Y-90093661D01*
X149318740Y-90094037D01*
X149380974Y-90093737D01*
X149424740Y-90092484D01*
X149454143Y-90089746D01*
X149473291Y-90084993D01*
X149486289Y-90077693D01*
X149493257Y-90071459D01*
X149499838Y-90063886D01*
X149505000Y-90054116D01*
X149508915Y-90039532D01*
X149511755Y-90017518D01*
X149513692Y-89985456D01*
X149514896Y-89940728D01*
X149515540Y-89880718D01*
X149515795Y-89802809D01*
X149515834Y-89727148D01*
X149516082Y-89626233D01*
X149516029Y-89545619D01*
X149515069Y-89507014D01*
X149369079Y-89507014D01*
X149369079Y-89947281D01*
X149275946Y-89947196D01*
X149219905Y-89945588D01*
X149161211Y-89941448D01*
X149112240Y-89935656D01*
X149110750Y-89935418D01*
X149031604Y-89916282D01*
X148970214Y-89886479D01*
X148923517Y-89844070D01*
X148893847Y-89798153D01*
X148875565Y-89747218D01*
X148876983Y-89699392D01*
X148898200Y-89648125D01*
X148939701Y-89595091D01*
X148997210Y-89555792D01*
X149071962Y-89529523D01*
X149121920Y-89520227D01*
X149178628Y-89513699D01*
X149238731Y-89508974D01*
X149289851Y-89507009D01*
X149292879Y-89507000D01*
X149369079Y-89507014D01*
X149515069Y-89507014D01*
X149514472Y-89483043D01*
X149510210Y-89436247D01*
X149502042Y-89402970D01*
X149488768Y-89380951D01*
X149469186Y-89367931D01*
X149442095Y-89361649D01*
X149406294Y-89359845D01*
X149360583Y-89360258D01*
G36*
X146930915Y-89361543D02*
G01*
X146856100Y-89366773D01*
X146786518Y-89374942D01*
X146726214Y-89385742D01*
X146679232Y-89398865D01*
X146649618Y-89414005D01*
X146645072Y-89418461D01*
X146629266Y-89453042D01*
X146634059Y-89488543D01*
X146658576Y-89518917D01*
X146659746Y-89519788D01*
X146674166Y-89529146D01*
X146689220Y-89534068D01*
X146710217Y-89534665D01*
X146742469Y-89531053D01*
X146791285Y-89523346D01*
X146795212Y-89522697D01*
X146867951Y-89513761D01*
X146946429Y-89509353D01*
X147025139Y-89509311D01*
X147098573Y-89513471D01*
X147161223Y-89521671D01*
X147207582Y-89533749D01*
X147210628Y-89534963D01*
X147244260Y-89553807D01*
X147256076Y-89572877D01*
X147246826Y-89591631D01*
X147217259Y-89609529D01*
X147168123Y-89626029D01*
X147100169Y-89640588D01*
X147054857Y-89647598D01*
X146960668Y-89661081D01*
X146885756Y-89673406D01*
X146826929Y-89685641D01*
X146780997Y-89698853D01*
X146744767Y-89714109D01*
X146715050Y-89732477D01*
X146688654Y-89755023D01*
X146667442Y-89777163D01*
X146642277Y-89808011D01*
X146629893Y-89834537D01*
X146626020Y-89867218D01*
X146625879Y-89879187D01*
X146628788Y-89918904D01*
X146640414Y-89948451D01*
X146660535Y-89974678D01*
X146701428Y-90014768D01*
X146747029Y-90045341D01*
X146800725Y-90067395D01*
X146865904Y-90081927D01*
X146945956Y-90089933D01*
X147044269Y-90092410D01*
X147060501Y-90092369D01*
X147126061Y-90091010D01*
X147191078Y-90087922D01*
X147248464Y-90083548D01*
X147291134Y-90078332D01*
X147294584Y-90077733D01*
X147337008Y-90067683D01*
X147372992Y-90054988D01*
X147393362Y-90043382D01*
X147412319Y-90012764D01*
X147413639Y-89977110D01*
X147397297Y-89945336D01*
X147393641Y-89941743D01*
X147378527Y-89931068D01*
X147359627Y-89926468D01*
X147330374Y-89927251D01*
X147294863Y-89931319D01*
X147255182Y-89934954D01*
X147199557Y-89938020D01*
X147134618Y-89940245D01*
X147066997Y-89941356D01*
X147049212Y-89941429D01*
X146981340Y-89941156D01*
X146931666Y-89939838D01*
X146895822Y-89937019D01*
X146869436Y-89932242D01*
X146848138Y-89925049D01*
X146835338Y-89919059D01*
X146807212Y-89902425D01*
X146789280Y-89887360D01*
X146786659Y-89883089D01*
X146792188Y-89865455D01*
X146818472Y-89848384D01*
X146863690Y-89832650D01*
X146926020Y-89819030D01*
X146944383Y-89815996D01*
X147040302Y-89800930D01*
X147116853Y-89788338D01*
X147176992Y-89777303D01*
X147223672Y-89766912D01*
X147259849Y-89756248D01*
X147288477Y-89744397D01*
X147312510Y-89730443D01*
X147334904Y-89713473D01*
X147358614Y-89692570D01*
X147366592Y-89685241D01*
X147394565Y-89657891D01*
X147409372Y-89636221D01*
X147415164Y-89611424D01*
X147416101Y-89580175D01*
X147405787Y-89518897D01*
X147374964Y-89466832D01*
X147323807Y-89424150D01*
X147252495Y-89391017D01*
X147201612Y-89376156D01*
X147146312Y-89366558D01*
X147080065Y-89361128D01*
X147006918Y-89359559D01*
X146930915Y-89361543D01*
G37*
X146930915Y-89361543D02*
X146856100Y-89366773D01*
X146786518Y-89374942D01*
X146726214Y-89385742D01*
X146679232Y-89398865D01*
X146649618Y-89414005D01*
X146645072Y-89418461D01*
X146629266Y-89453042D01*
X146634059Y-89488543D01*
X146658576Y-89518917D01*
X146659746Y-89519788D01*
X146674166Y-89529146D01*
X146689220Y-89534068D01*
X146710217Y-89534665D01*
X146742469Y-89531053D01*
X146791285Y-89523346D01*
X146795212Y-89522697D01*
X146867951Y-89513761D01*
X146946429Y-89509353D01*
X147025139Y-89509311D01*
X147098573Y-89513471D01*
X147161223Y-89521671D01*
X147207582Y-89533749D01*
X147210628Y-89534963D01*
X147244260Y-89553807D01*
X147256076Y-89572877D01*
X147246826Y-89591631D01*
X147217259Y-89609529D01*
X147168123Y-89626029D01*
X147100169Y-89640588D01*
X147054857Y-89647598D01*
X146960668Y-89661081D01*
X146885756Y-89673406D01*
X146826929Y-89685641D01*
X146780997Y-89698853D01*
X146744767Y-89714109D01*
X146715050Y-89732477D01*
X146688654Y-89755023D01*
X146667442Y-89777163D01*
X146642277Y-89808011D01*
X146629893Y-89834537D01*
X146626020Y-89867218D01*
X146625879Y-89879187D01*
X146628788Y-89918904D01*
X146640414Y-89948451D01*
X146660535Y-89974678D01*
X146701428Y-90014768D01*
X146747029Y-90045341D01*
X146800725Y-90067395D01*
X146865904Y-90081927D01*
X146945956Y-90089933D01*
X147044269Y-90092410D01*
X147060501Y-90092369D01*
X147126061Y-90091010D01*
X147191078Y-90087922D01*
X147248464Y-90083548D01*
X147291134Y-90078332D01*
X147294584Y-90077733D01*
X147337008Y-90067683D01*
X147372992Y-90054988D01*
X147393362Y-90043382D01*
X147412319Y-90012764D01*
X147413639Y-89977110D01*
X147397297Y-89945336D01*
X147393641Y-89941743D01*
X147378527Y-89931068D01*
X147359627Y-89926468D01*
X147330374Y-89927251D01*
X147294863Y-89931319D01*
X147255182Y-89934954D01*
X147199557Y-89938020D01*
X147134618Y-89940245D01*
X147066997Y-89941356D01*
X147049212Y-89941429D01*
X146981340Y-89941156D01*
X146931666Y-89939838D01*
X146895822Y-89937019D01*
X146869436Y-89932242D01*
X146848138Y-89925049D01*
X146835338Y-89919059D01*
X146807212Y-89902425D01*
X146789280Y-89887360D01*
X146786659Y-89883089D01*
X146792188Y-89865455D01*
X146818472Y-89848384D01*
X146863690Y-89832650D01*
X146926020Y-89819030D01*
X146944383Y-89815996D01*
X147040302Y-89800930D01*
X147116853Y-89788338D01*
X147176992Y-89777303D01*
X147223672Y-89766912D01*
X147259849Y-89756248D01*
X147288477Y-89744397D01*
X147312510Y-89730443D01*
X147334904Y-89713473D01*
X147358614Y-89692570D01*
X147366592Y-89685241D01*
X147394565Y-89657891D01*
X147409372Y-89636221D01*
X147415164Y-89611424D01*
X147416101Y-89580175D01*
X147405787Y-89518897D01*
X147374964Y-89466832D01*
X147323807Y-89424150D01*
X147252495Y-89391017D01*
X147201612Y-89376156D01*
X147146312Y-89366558D01*
X147080065Y-89361128D01*
X147006918Y-89359559D01*
X146930915Y-89361543D01*
G36*
X146163034Y-89382837D02*
G01*
X146156454Y-89390410D01*
X146151291Y-89400179D01*
X146147376Y-89414763D01*
X146144536Y-89436777D01*
X146142599Y-89468840D01*
X146141395Y-89513567D01*
X146140751Y-89573577D01*
X146140496Y-89651486D01*
X146140457Y-89727148D01*
X146140526Y-89820994D01*
X146140850Y-89894881D01*
X146141598Y-89951424D01*
X146142944Y-89993241D01*
X146145058Y-90022949D01*
X146148112Y-90043165D01*
X146152278Y-90056506D01*
X146157728Y-90065590D01*
X146163034Y-90071459D01*
X146196038Y-90091139D01*
X146231203Y-90089373D01*
X146262667Y-90067909D01*
X146269896Y-90059529D01*
X146275546Y-90049806D01*
X146279811Y-90036053D01*
X146282885Y-90015581D01*
X146284964Y-89985704D01*
X146286242Y-89943733D01*
X146286913Y-89886981D01*
X146287171Y-89812759D01*
X146287212Y-89728729D01*
X146287212Y-89415677D01*
X146259503Y-89387968D01*
X146225349Y-89364655D01*
X146192218Y-89363815D01*
X146163034Y-89382837D01*
G37*
X146163034Y-89382837D02*
X146156454Y-89390410D01*
X146151291Y-89400179D01*
X146147376Y-89414763D01*
X146144536Y-89436777D01*
X146142599Y-89468840D01*
X146141395Y-89513567D01*
X146140751Y-89573577D01*
X146140496Y-89651486D01*
X146140457Y-89727148D01*
X146140526Y-89820994D01*
X146140850Y-89894881D01*
X146141598Y-89951424D01*
X146142944Y-89993241D01*
X146145058Y-90022949D01*
X146148112Y-90043165D01*
X146152278Y-90056506D01*
X146157728Y-90065590D01*
X146163034Y-90071459D01*
X146196038Y-90091139D01*
X146231203Y-90089373D01*
X146262667Y-90067909D01*
X146269896Y-90059529D01*
X146275546Y-90049806D01*
X146279811Y-90036053D01*
X146282885Y-90015581D01*
X146284964Y-89985704D01*
X146286242Y-89943733D01*
X146286913Y-89886981D01*
X146287171Y-89812759D01*
X146287212Y-89728729D01*
X146287212Y-89415677D01*
X146259503Y-89387968D01*
X146225349Y-89364655D01*
X146192218Y-89363815D01*
X146163034Y-89382837D01*
G36*
X145189293Y-89365791D02*
G01*
X145120777Y-89377287D01*
X145068155Y-89395159D01*
X145033920Y-89418691D01*
X145024591Y-89432116D01*
X145015105Y-89463340D01*
X145021489Y-89491587D01*
X145041642Y-89518374D01*
X145072957Y-89530905D01*
X145118395Y-89529888D01*
X145153538Y-89523098D01*
X145231631Y-89510163D01*
X145311438Y-89508934D01*
X145400767Y-89519433D01*
X145425441Y-89523882D01*
X145508503Y-89547300D01*
X145573485Y-89582137D01*
X145619673Y-89627796D01*
X145646357Y-89683686D01*
X145651875Y-89712580D01*
X145648263Y-89771204D01*
X145624941Y-89823071D01*
X145584036Y-89867170D01*
X145527671Y-89902491D01*
X145457972Y-89928021D01*
X145377064Y-89942751D01*
X145287072Y-89945670D01*
X145190122Y-89935767D01*
X145184648Y-89934833D01*
X145146087Y-89927651D01*
X145124706Y-89920713D01*
X145115439Y-89910419D01*
X145113218Y-89893168D01*
X145113168Y-89884033D01*
X145113168Y-89845681D01*
X145181643Y-89845681D01*
X145242112Y-89841539D01*
X145283377Y-89828339D01*
X145307387Y-89804922D01*
X145316089Y-89770128D01*
X145316195Y-89765586D01*
X145311104Y-89735846D01*
X145293645Y-89714611D01*
X145261151Y-89700558D01*
X145210955Y-89692365D01*
X145162335Y-89689353D01*
X145091668Y-89687625D01*
X145040410Y-89690262D01*
X145005451Y-89699992D01*
X144983682Y-89719545D01*
X144971992Y-89751648D01*
X144967272Y-89799030D01*
X144966412Y-89861263D01*
X144967821Y-89930727D01*
X144972060Y-89977978D01*
X144979148Y-90003204D01*
X144980523Y-90005180D01*
X145019440Y-90036700D01*
X145076498Y-90061662D01*
X145148081Y-90079532D01*
X145230570Y-90089778D01*
X145320351Y-90091865D01*
X145413804Y-90085260D01*
X145468768Y-90077148D01*
X145554978Y-90052746D01*
X145635104Y-90012854D01*
X145702189Y-89961079D01*
X145712385Y-89950731D01*
X145745514Y-89907227D01*
X145775406Y-89853310D01*
X145798569Y-89796784D01*
X145811510Y-89745451D01*
X145813070Y-89725736D01*
X145806430Y-89684611D01*
X145788780Y-89633444D01*
X145763509Y-89579586D01*
X145734001Y-89530387D01*
X145707931Y-89497526D01*
X145646977Y-89448644D01*
X145568181Y-89409737D01*
X145474369Y-89381686D01*
X145368362Y-89365371D01*
X145271212Y-89361384D01*
X145189293Y-89365791D01*
G37*
X145189293Y-89365791D02*
X145120777Y-89377287D01*
X145068155Y-89395159D01*
X145033920Y-89418691D01*
X145024591Y-89432116D01*
X145015105Y-89463340D01*
X145021489Y-89491587D01*
X145041642Y-89518374D01*
X145072957Y-89530905D01*
X145118395Y-89529888D01*
X145153538Y-89523098D01*
X145231631Y-89510163D01*
X145311438Y-89508934D01*
X145400767Y-89519433D01*
X145425441Y-89523882D01*
X145508503Y-89547300D01*
X145573485Y-89582137D01*
X145619673Y-89627796D01*
X145646357Y-89683686D01*
X145651875Y-89712580D01*
X145648263Y-89771204D01*
X145624941Y-89823071D01*
X145584036Y-89867170D01*
X145527671Y-89902491D01*
X145457972Y-89928021D01*
X145377064Y-89942751D01*
X145287072Y-89945670D01*
X145190122Y-89935767D01*
X145184648Y-89934833D01*
X145146087Y-89927651D01*
X145124706Y-89920713D01*
X145115439Y-89910419D01*
X145113218Y-89893168D01*
X145113168Y-89884033D01*
X145113168Y-89845681D01*
X145181643Y-89845681D01*
X145242112Y-89841539D01*
X145283377Y-89828339D01*
X145307387Y-89804922D01*
X145316089Y-89770128D01*
X145316195Y-89765586D01*
X145311104Y-89735846D01*
X145293645Y-89714611D01*
X145261151Y-89700558D01*
X145210955Y-89692365D01*
X145162335Y-89689353D01*
X145091668Y-89687625D01*
X145040410Y-89690262D01*
X145005451Y-89699992D01*
X144983682Y-89719545D01*
X144971992Y-89751648D01*
X144967272Y-89799030D01*
X144966412Y-89861263D01*
X144967821Y-89930727D01*
X144972060Y-89977978D01*
X144979148Y-90003204D01*
X144980523Y-90005180D01*
X145019440Y-90036700D01*
X145076498Y-90061662D01*
X145148081Y-90079532D01*
X145230570Y-90089778D01*
X145320351Y-90091865D01*
X145413804Y-90085260D01*
X145468768Y-90077148D01*
X145554978Y-90052746D01*
X145635104Y-90012854D01*
X145702189Y-89961079D01*
X145712385Y-89950731D01*
X145745514Y-89907227D01*
X145775406Y-89853310D01*
X145798569Y-89796784D01*
X145811510Y-89745451D01*
X145813070Y-89725736D01*
X145806430Y-89684611D01*
X145788780Y-89633444D01*
X145763509Y-89579586D01*
X145734001Y-89530387D01*
X145707931Y-89497526D01*
X145646977Y-89448644D01*
X145568181Y-89409737D01*
X145474369Y-89381686D01*
X145368362Y-89365371D01*
X145271212Y-89361384D01*
X145189293Y-89365791D01*
G36*
X144539326Y-89364640D02*
G01*
X144515760Y-89378465D01*
X144484947Y-89401073D01*
X144445290Y-89433530D01*
X144395192Y-89476900D01*
X144333055Y-89532250D01*
X144257284Y-89600643D01*
X144170546Y-89679276D01*
X143989923Y-89843070D01*
X143984279Y-89623221D01*
X143982241Y-89547543D01*
X143980275Y-89491186D01*
X143977946Y-89450898D01*
X143974818Y-89423427D01*
X143970457Y-89405521D01*
X143964428Y-89393929D01*
X143956296Y-89385400D01*
X143951984Y-89381815D01*
X143917453Y-89362862D01*
X143884595Y-89365633D01*
X143858530Y-89381825D01*
X143831879Y-89403391D01*
X143828564Y-89718343D01*
X143827647Y-89810971D01*
X143827180Y-89883736D01*
X143827325Y-89939353D01*
X143828244Y-89980534D01*
X143830099Y-90009995D01*
X143833051Y-90030447D01*
X143837262Y-90044605D01*
X143842894Y-90055183D01*
X143849139Y-90063666D01*
X143862651Y-90079399D01*
X143876095Y-90089828D01*
X143891336Y-90093831D01*
X143910238Y-90090286D01*
X143934667Y-90078071D01*
X143966485Y-90056063D01*
X144007560Y-90023141D01*
X144059754Y-89978183D01*
X144124934Y-89920067D01*
X144198768Y-89853291D01*
X144464057Y-89612650D01*
X144469701Y-89831781D01*
X144471743Y-89907320D01*
X144473714Y-89963546D01*
X144476051Y-90003716D01*
X144479193Y-90031088D01*
X144483576Y-90048920D01*
X144489636Y-90060471D01*
X144497812Y-90068999D01*
X144501996Y-90072474D01*
X144538977Y-90091564D01*
X144573920Y-90088685D01*
X144604348Y-90064292D01*
X144611309Y-90054478D01*
X144616735Y-90043018D01*
X144620815Y-90027160D01*
X144623741Y-90004155D01*
X144625704Y-89971254D01*
X144626895Y-89925708D01*
X144627504Y-89864765D01*
X144627723Y-89785678D01*
X144627746Y-89727148D01*
X144627672Y-89635599D01*
X144627325Y-89563879D01*
X144626513Y-89509237D01*
X144625045Y-89468924D01*
X144622731Y-89440190D01*
X144619379Y-89420285D01*
X144614800Y-89406460D01*
X144608801Y-89395964D01*
X144604348Y-89390003D01*
X144593062Y-89375883D01*
X144582513Y-89365221D01*
X144571105Y-89359084D01*
X144557242Y-89358535D01*
X144539326Y-89364640D01*
G37*
X144539326Y-89364640D02*
X144515760Y-89378465D01*
X144484947Y-89401073D01*
X144445290Y-89433530D01*
X144395192Y-89476900D01*
X144333055Y-89532250D01*
X144257284Y-89600643D01*
X144170546Y-89679276D01*
X143989923Y-89843070D01*
X143984279Y-89623221D01*
X143982241Y-89547543D01*
X143980275Y-89491186D01*
X143977946Y-89450898D01*
X143974818Y-89423427D01*
X143970457Y-89405521D01*
X143964428Y-89393929D01*
X143956296Y-89385400D01*
X143951984Y-89381815D01*
X143917453Y-89362862D01*
X143884595Y-89365633D01*
X143858530Y-89381825D01*
X143831879Y-89403391D01*
X143828564Y-89718343D01*
X143827647Y-89810971D01*
X143827180Y-89883736D01*
X143827325Y-89939353D01*
X143828244Y-89980534D01*
X143830099Y-90009995D01*
X143833051Y-90030447D01*
X143837262Y-90044605D01*
X143842894Y-90055183D01*
X143849139Y-90063666D01*
X143862651Y-90079399D01*
X143876095Y-90089828D01*
X143891336Y-90093831D01*
X143910238Y-90090286D01*
X143934667Y-90078071D01*
X143966485Y-90056063D01*
X144007560Y-90023141D01*
X144059754Y-89978183D01*
X144124934Y-89920067D01*
X144198768Y-89853291D01*
X144464057Y-89612650D01*
X144469701Y-89831781D01*
X144471743Y-89907320D01*
X144473714Y-89963546D01*
X144476051Y-90003716D01*
X144479193Y-90031088D01*
X144483576Y-90048920D01*
X144489636Y-90060471D01*
X144497812Y-90068999D01*
X144501996Y-90072474D01*
X144538977Y-90091564D01*
X144573920Y-90088685D01*
X144604348Y-90064292D01*
X144611309Y-90054478D01*
X144616735Y-90043018D01*
X144620815Y-90027160D01*
X144623741Y-90004155D01*
X144625704Y-89971254D01*
X144626895Y-89925708D01*
X144627504Y-89864765D01*
X144627723Y-89785678D01*
X144627746Y-89727148D01*
X144627672Y-89635599D01*
X144627325Y-89563879D01*
X144626513Y-89509237D01*
X144625045Y-89468924D01*
X144622731Y-89440190D01*
X144619379Y-89420285D01*
X144614800Y-89406460D01*
X144608801Y-89395964D01*
X144604348Y-89390003D01*
X144593062Y-89375883D01*
X144582513Y-89365221D01*
X144571105Y-89359084D01*
X144557242Y-89358535D01*
X144539326Y-89364640D01*
G36*
X143008869Y-89360452D02*
G01*
X142932511Y-89361366D01*
X142873995Y-89363503D01*
X142830957Y-89367367D01*
X142801029Y-89373459D01*
X142781844Y-89382282D01*
X142771036Y-89394338D01*
X142766239Y-89410131D01*
X142765085Y-89430162D01*
X142765079Y-89432527D01*
X142766081Y-89455184D01*
X142770816Y-89472695D01*
X142781879Y-89485766D01*
X142801864Y-89495105D01*
X142833366Y-89501419D01*
X142878980Y-89505414D01*
X142941299Y-89507798D01*
X143022919Y-89509278D01*
X143047935Y-89509606D01*
X143290012Y-89512659D01*
X143293398Y-89577570D01*
X143296783Y-89642481D01*
X143128636Y-89642481D01*
X143062946Y-89642723D01*
X143016040Y-89643748D01*
X142984129Y-89646003D01*
X142963421Y-89649934D01*
X142950128Y-89655990D01*
X142940457Y-89664616D01*
X142940395Y-89664685D01*
X142922856Y-89698304D01*
X142923490Y-89734640D01*
X142941898Y-89765615D01*
X142945541Y-89768799D01*
X142958471Y-89777004D01*
X142976188Y-89782713D01*
X143002642Y-89786354D01*
X143041780Y-89788359D01*
X143097550Y-89789156D01*
X143133218Y-89789237D01*
X143295657Y-89789237D01*
X143295657Y-89947281D01*
X143049051Y-89947281D01*
X142967632Y-89947423D01*
X142905802Y-89948006D01*
X142860575Y-89949260D01*
X142828964Y-89951419D01*
X142807981Y-89954715D01*
X142794639Y-89959381D01*
X142785951Y-89965649D01*
X142783762Y-89967925D01*
X142767598Y-89999472D01*
X142766415Y-90035360D01*
X142779676Y-90066477D01*
X142790169Y-90076463D01*
X142801083Y-90081961D01*
X142817995Y-90086214D01*
X142843579Y-90089372D01*
X142880511Y-90091584D01*
X142931466Y-90092998D01*
X142999118Y-90093764D01*
X143086143Y-90094030D01*
X143105818Y-90094037D01*
X143194301Y-90093979D01*
X143262985Y-90093659D01*
X143314648Y-90092859D01*
X143352067Y-90091359D01*
X143378022Y-90088941D01*
X143395290Y-90085386D01*
X143406650Y-90080474D01*
X143414880Y-90073987D01*
X143419395Y-90069330D01*
X143426191Y-90061081D01*
X143431500Y-90050861D01*
X143435506Y-90035992D01*
X143438391Y-90013794D01*
X143440338Y-89981585D01*
X143441531Y-89936688D01*
X143442151Y-89876420D01*
X143442383Y-89798103D01*
X143442412Y-89732186D01*
X143442341Y-89639820D01*
X143442004Y-89567309D01*
X143441214Y-89511929D01*
X143439786Y-89470957D01*
X143437533Y-89441670D01*
X143434269Y-89421345D01*
X143429808Y-89407258D01*
X143423964Y-89396687D01*
X143419015Y-89390003D01*
X143395618Y-89360259D01*
X143105438Y-89360259D01*
X143008869Y-89360452D01*
G37*
X143008869Y-89360452D02*
X142932511Y-89361366D01*
X142873995Y-89363503D01*
X142830957Y-89367367D01*
X142801029Y-89373459D01*
X142781844Y-89382282D01*
X142771036Y-89394338D01*
X142766239Y-89410131D01*
X142765085Y-89430162D01*
X142765079Y-89432527D01*
X142766081Y-89455184D01*
X142770816Y-89472695D01*
X142781879Y-89485766D01*
X142801864Y-89495105D01*
X142833366Y-89501419D01*
X142878980Y-89505414D01*
X142941299Y-89507798D01*
X143022919Y-89509278D01*
X143047935Y-89509606D01*
X143290012Y-89512659D01*
X143293398Y-89577570D01*
X143296783Y-89642481D01*
X143128636Y-89642481D01*
X143062946Y-89642723D01*
X143016040Y-89643748D01*
X142984129Y-89646003D01*
X142963421Y-89649934D01*
X142950128Y-89655990D01*
X142940457Y-89664616D01*
X142940395Y-89664685D01*
X142922856Y-89698304D01*
X142923490Y-89734640D01*
X142941898Y-89765615D01*
X142945541Y-89768799D01*
X142958471Y-89777004D01*
X142976188Y-89782713D01*
X143002642Y-89786354D01*
X143041780Y-89788359D01*
X143097550Y-89789156D01*
X143133218Y-89789237D01*
X143295657Y-89789237D01*
X143295657Y-89947281D01*
X143049051Y-89947281D01*
X142967632Y-89947423D01*
X142905802Y-89948006D01*
X142860575Y-89949260D01*
X142828964Y-89951419D01*
X142807981Y-89954715D01*
X142794639Y-89959381D01*
X142785951Y-89965649D01*
X142783762Y-89967925D01*
X142767598Y-89999472D01*
X142766415Y-90035360D01*
X142779676Y-90066477D01*
X142790169Y-90076463D01*
X142801083Y-90081961D01*
X142817995Y-90086214D01*
X142843579Y-90089372D01*
X142880511Y-90091584D01*
X142931466Y-90092998D01*
X142999118Y-90093764D01*
X143086143Y-90094030D01*
X143105818Y-90094037D01*
X143194301Y-90093979D01*
X143262985Y-90093659D01*
X143314648Y-90092859D01*
X143352067Y-90091359D01*
X143378022Y-90088941D01*
X143395290Y-90085386D01*
X143406650Y-90080474D01*
X143414880Y-90073987D01*
X143419395Y-90069330D01*
X143426191Y-90061081D01*
X143431500Y-90050861D01*
X143435506Y-90035992D01*
X143438391Y-90013794D01*
X143440338Y-89981585D01*
X143441531Y-89936688D01*
X143442151Y-89876420D01*
X143442383Y-89798103D01*
X143442412Y-89732186D01*
X143442341Y-89639820D01*
X143442004Y-89567309D01*
X143441214Y-89511929D01*
X143439786Y-89470957D01*
X143437533Y-89441670D01*
X143434269Y-89421345D01*
X143429808Y-89407258D01*
X143423964Y-89396687D01*
X143419015Y-89390003D01*
X143395618Y-89360259D01*
X143105438Y-89360259D01*
X143008869Y-89360452D01*
G36*
X142220903Y-89360467D02*
G01*
X142091924Y-89364828D01*
X141982221Y-89378053D01*
X141889986Y-89400933D01*
X141813410Y-89434262D01*
X141750685Y-89478830D01*
X141700000Y-89535428D01*
X141659549Y-89604850D01*
X141658753Y-89606543D01*
X141634611Y-89668675D01*
X141626009Y-89723701D01*
X141632981Y-89779079D01*
X141655558Y-89842265D01*
X141659840Y-89851881D01*
X141689040Y-89908158D01*
X141721856Y-89951643D01*
X141764210Y-89988609D01*
X141822022Y-90025327D01*
X141825381Y-90027244D01*
X141875708Y-90051419D01*
X141932591Y-90069474D01*
X141999685Y-90082031D01*
X142080647Y-90089714D01*
X142179130Y-90093145D01*
X142213926Y-90093443D01*
X142379618Y-90094037D01*
X142403015Y-90064292D01*
X142409955Y-90054511D01*
X142415370Y-90043089D01*
X142419447Y-90027287D01*
X142422375Y-90004367D01*
X142424345Y-89971588D01*
X142424987Y-89947281D01*
X142268368Y-89947281D01*
X142174486Y-89947281D01*
X142119548Y-89945675D01*
X142063152Y-89941447D01*
X142016867Y-89935484D01*
X142014073Y-89934982D01*
X141931864Y-89912928D01*
X141868098Y-89879792D01*
X141820760Y-89834039D01*
X141787830Y-89774131D01*
X141782104Y-89758253D01*
X141776491Y-89733525D01*
X141778921Y-89709094D01*
X141790745Y-89676592D01*
X141797872Y-89660626D01*
X141821212Y-89618198D01*
X141849332Y-89588432D01*
X141880272Y-89567703D01*
X141942246Y-89540729D01*
X142021561Y-89521190D01*
X142113959Y-89509938D01*
X142180879Y-89507462D01*
X142268368Y-89507014D01*
X142268368Y-89947281D01*
X142424987Y-89947281D01*
X142425544Y-89926213D01*
X142426162Y-89865503D01*
X142426387Y-89786718D01*
X142426412Y-89725112D01*
X142426412Y-89415677D01*
X142398703Y-89387968D01*
X142386406Y-89376736D01*
X142373109Y-89369045D01*
X142354540Y-89364232D01*
X142326426Y-89361638D01*
X142284495Y-89360602D01*
X142224475Y-89360462D01*
X142220903Y-89360467D01*
G37*
X142220903Y-89360467D02*
X142091924Y-89364828D01*
X141982221Y-89378053D01*
X141889986Y-89400933D01*
X141813410Y-89434262D01*
X141750685Y-89478830D01*
X141700000Y-89535428D01*
X141659549Y-89604850D01*
X141658753Y-89606543D01*
X141634611Y-89668675D01*
X141626009Y-89723701D01*
X141632981Y-89779079D01*
X141655558Y-89842265D01*
X141659840Y-89851881D01*
X141689040Y-89908158D01*
X141721856Y-89951643D01*
X141764210Y-89988609D01*
X141822022Y-90025327D01*
X141825381Y-90027244D01*
X141875708Y-90051419D01*
X141932591Y-90069474D01*
X141999685Y-90082031D01*
X142080647Y-90089714D01*
X142179130Y-90093145D01*
X142213926Y-90093443D01*
X142379618Y-90094037D01*
X142403015Y-90064292D01*
X142409955Y-90054511D01*
X142415370Y-90043089D01*
X142419447Y-90027287D01*
X142422375Y-90004367D01*
X142424345Y-89971588D01*
X142424987Y-89947281D01*
X142268368Y-89947281D01*
X142174486Y-89947281D01*
X142119548Y-89945675D01*
X142063152Y-89941447D01*
X142016867Y-89935484D01*
X142014073Y-89934982D01*
X141931864Y-89912928D01*
X141868098Y-89879792D01*
X141820760Y-89834039D01*
X141787830Y-89774131D01*
X141782104Y-89758253D01*
X141776491Y-89733525D01*
X141778921Y-89709094D01*
X141790745Y-89676592D01*
X141797872Y-89660626D01*
X141821212Y-89618198D01*
X141849332Y-89588432D01*
X141880272Y-89567703D01*
X141942246Y-89540729D01*
X142021561Y-89521190D01*
X142113959Y-89509938D01*
X142180879Y-89507462D01*
X142268368Y-89507014D01*
X142268368Y-89947281D01*
X142424987Y-89947281D01*
X142425544Y-89926213D01*
X142426162Y-89865503D01*
X142426387Y-89786718D01*
X142426412Y-89725112D01*
X142426412Y-89415677D01*
X142398703Y-89387968D01*
X142386406Y-89376736D01*
X142373109Y-89369045D01*
X142354540Y-89364232D01*
X142326426Y-89361638D01*
X142284495Y-89360602D01*
X142224475Y-89360462D01*
X142220903Y-89360467D01*
G36*
X139494547Y-89362226D02*
G01*
X139474957Y-89369227D01*
X139474202Y-89369569D01*
X139447599Y-89389870D01*
X139432942Y-89410753D01*
X139430074Y-89420544D01*
X139430216Y-89433553D01*
X139434251Y-89452087D01*
X139443066Y-89478449D01*
X139457543Y-89514944D01*
X139478567Y-89563879D01*
X139507024Y-89627557D01*
X139543797Y-89708285D01*
X139564037Y-89752408D01*
X139600587Y-89831177D01*
X139634897Y-89903615D01*
X139665660Y-89967072D01*
X139691564Y-90018900D01*
X139711302Y-90056451D01*
X139723562Y-90077076D01*
X139725988Y-90079925D01*
X139757029Y-90092494D01*
X139792091Y-90090811D01*
X139820212Y-90075524D01*
X139821358Y-90074281D01*
X139832544Y-90057346D01*
X139851308Y-90024362D01*
X139875337Y-89979572D01*
X139902315Y-89927224D01*
X139912011Y-89907934D01*
X139985198Y-89761342D01*
X140064972Y-89920585D01*
X140093445Y-89975607D01*
X140119862Y-90023324D01*
X140142064Y-90060085D01*
X140157893Y-90082236D01*
X140163258Y-90086933D01*
X140204955Y-90093294D01*
X140239363Y-90079925D01*
X140249484Y-90065638D01*
X140266998Y-90033884D01*
X140290477Y-89987789D01*
X140318492Y-89930477D01*
X140349613Y-89865072D01*
X140382413Y-89794699D01*
X140415462Y-89722483D01*
X140447331Y-89651547D01*
X140476593Y-89585017D01*
X140501817Y-89526018D01*
X140521576Y-89477673D01*
X140534440Y-89443107D01*
X140538981Y-89425445D01*
X140538935Y-89424805D01*
X140527886Y-89402580D01*
X140505802Y-89379945D01*
X140504502Y-89378960D01*
X140477359Y-89363617D01*
X140452254Y-89363766D01*
X140442844Y-89366658D01*
X140431378Y-89372910D01*
X140419202Y-89385206D01*
X140404855Y-89406100D01*
X140386876Y-89438141D01*
X140363805Y-89483880D01*
X140334182Y-89545869D01*
X140307467Y-89603090D01*
X140276732Y-89669418D01*
X140249191Y-89729066D01*
X140226274Y-89778917D01*
X140209414Y-89815856D01*
X140200039Y-89836765D01*
X140198672Y-89840037D01*
X140192523Y-89834689D01*
X140178390Y-89812301D01*
X140158155Y-89776138D01*
X140133697Y-89729469D01*
X140123964Y-89710214D01*
X140090995Y-89645196D01*
X140065569Y-89597846D01*
X140045600Y-89565411D01*
X140029002Y-89545138D01*
X140013688Y-89534274D01*
X139997572Y-89530067D01*
X139987069Y-89529592D01*
X139968542Y-89531234D01*
X139952308Y-89538023D01*
X139936177Y-89552758D01*
X139917961Y-89578236D01*
X139895473Y-89617253D01*
X139866523Y-89672606D01*
X139850550Y-89704095D01*
X139824642Y-89754279D01*
X139802045Y-89795896D01*
X139784754Y-89825434D01*
X139774762Y-89839381D01*
X139773403Y-89839962D01*
X139766951Y-89828985D01*
X139752504Y-89800482D01*
X139731509Y-89757436D01*
X139705415Y-89702830D01*
X139675666Y-89639646D01*
X139661032Y-89608263D01*
X139622962Y-89527270D01*
X139592307Y-89464948D01*
X139567475Y-89419263D01*
X139546875Y-89388181D01*
X139528914Y-89369670D01*
X139512002Y-89361696D01*
X139494547Y-89362226D01*
G37*
X139494547Y-89362226D02*
X139474957Y-89369227D01*
X139474202Y-89369569D01*
X139447599Y-89389870D01*
X139432942Y-89410753D01*
X139430074Y-89420544D01*
X139430216Y-89433553D01*
X139434251Y-89452087D01*
X139443066Y-89478449D01*
X139457543Y-89514944D01*
X139478567Y-89563879D01*
X139507024Y-89627557D01*
X139543797Y-89708285D01*
X139564037Y-89752408D01*
X139600587Y-89831177D01*
X139634897Y-89903615D01*
X139665660Y-89967072D01*
X139691564Y-90018900D01*
X139711302Y-90056451D01*
X139723562Y-90077076D01*
X139725988Y-90079925D01*
X139757029Y-90092494D01*
X139792091Y-90090811D01*
X139820212Y-90075524D01*
X139821358Y-90074281D01*
X139832544Y-90057346D01*
X139851308Y-90024362D01*
X139875337Y-89979572D01*
X139902315Y-89927224D01*
X139912011Y-89907934D01*
X139985198Y-89761342D01*
X140064972Y-89920585D01*
X140093445Y-89975607D01*
X140119862Y-90023324D01*
X140142064Y-90060085D01*
X140157893Y-90082236D01*
X140163258Y-90086933D01*
X140204955Y-90093294D01*
X140239363Y-90079925D01*
X140249484Y-90065638D01*
X140266998Y-90033884D01*
X140290477Y-89987789D01*
X140318492Y-89930477D01*
X140349613Y-89865072D01*
X140382413Y-89794699D01*
X140415462Y-89722483D01*
X140447331Y-89651547D01*
X140476593Y-89585017D01*
X140501817Y-89526018D01*
X140521576Y-89477673D01*
X140534440Y-89443107D01*
X140538981Y-89425445D01*
X140538935Y-89424805D01*
X140527886Y-89402580D01*
X140505802Y-89379945D01*
X140504502Y-89378960D01*
X140477359Y-89363617D01*
X140452254Y-89363766D01*
X140442844Y-89366658D01*
X140431378Y-89372910D01*
X140419202Y-89385206D01*
X140404855Y-89406100D01*
X140386876Y-89438141D01*
X140363805Y-89483880D01*
X140334182Y-89545869D01*
X140307467Y-89603090D01*
X140276732Y-89669418D01*
X140249191Y-89729066D01*
X140226274Y-89778917D01*
X140209414Y-89815856D01*
X140200039Y-89836765D01*
X140198672Y-89840037D01*
X140192523Y-89834689D01*
X140178390Y-89812301D01*
X140158155Y-89776138D01*
X140133697Y-89729469D01*
X140123964Y-89710214D01*
X140090995Y-89645196D01*
X140065569Y-89597846D01*
X140045600Y-89565411D01*
X140029002Y-89545138D01*
X140013688Y-89534274D01*
X139997572Y-89530067D01*
X139987069Y-89529592D01*
X139968542Y-89531234D01*
X139952308Y-89538023D01*
X139936177Y-89552758D01*
X139917961Y-89578236D01*
X139895473Y-89617253D01*
X139866523Y-89672606D01*
X139850550Y-89704095D01*
X139824642Y-89754279D01*
X139802045Y-89795896D01*
X139784754Y-89825434D01*
X139774762Y-89839381D01*
X139773403Y-89839962D01*
X139766951Y-89828985D01*
X139752504Y-89800482D01*
X139731509Y-89757436D01*
X139705415Y-89702830D01*
X139675666Y-89639646D01*
X139661032Y-89608263D01*
X139622962Y-89527270D01*
X139592307Y-89464948D01*
X139567475Y-89419263D01*
X139546875Y-89388181D01*
X139528914Y-89369670D01*
X139512002Y-89361696D01*
X139494547Y-89362226D01*
G36*
X139050598Y-89367069D02*
G01*
X139026885Y-89381839D01*
X139000234Y-89403419D01*
X139000234Y-89724965D01*
X139000319Y-89819022D01*
X139000683Y-89893124D01*
X139001488Y-89949896D01*
X139002899Y-89991960D01*
X139005079Y-90021940D01*
X139008191Y-90042459D01*
X139012398Y-90056141D01*
X139017864Y-90065608D01*
X139021740Y-90070274D01*
X139053178Y-90090767D01*
X139088979Y-90089931D01*
X139120339Y-90072456D01*
X139146990Y-90050876D01*
X139146990Y-89403419D01*
X139120339Y-89381839D01*
X139094618Y-89366141D01*
X139073612Y-89360259D01*
X139050598Y-89367069D01*
G37*
X139050598Y-89367069D02*
X139026885Y-89381839D01*
X139000234Y-89403419D01*
X139000234Y-89724965D01*
X139000319Y-89819022D01*
X139000683Y-89893124D01*
X139001488Y-89949896D01*
X139002899Y-89991960D01*
X139005079Y-90021940D01*
X139008191Y-90042459D01*
X139012398Y-90056141D01*
X139017864Y-90065608D01*
X139021740Y-90070274D01*
X139053178Y-90090767D01*
X139088979Y-90089931D01*
X139120339Y-90072456D01*
X139146990Y-90050876D01*
X139146990Y-89403419D01*
X139120339Y-89381839D01*
X139094618Y-89366141D01*
X139073612Y-89360259D01*
X139050598Y-89367069D01*
G36*
X138276147Y-89360355D02*
G01*
X138197440Y-89360734D01*
X138136349Y-89361525D01*
X138090395Y-89362862D01*
X138057098Y-89364875D01*
X138033976Y-89367698D01*
X138018550Y-89371461D01*
X138008341Y-89376297D01*
X138003399Y-89380014D01*
X137977755Y-89412550D01*
X137974653Y-89446330D01*
X137990501Y-89477018D01*
X138000864Y-89489281D01*
X138012016Y-89497642D01*
X138028177Y-89502849D01*
X138053570Y-89505649D01*
X138092414Y-89506788D01*
X138148932Y-89507013D01*
X138160032Y-89507014D01*
X138305968Y-89507014D01*
X138305968Y-89777948D01*
X138306064Y-89863346D01*
X138306501Y-89929056D01*
X138307500Y-89977966D01*
X138309284Y-90012965D01*
X138312075Y-90036941D01*
X138316095Y-90052785D01*
X138321567Y-90063383D01*
X138328546Y-90071459D01*
X138361478Y-90091304D01*
X138395858Y-90089740D01*
X138427036Y-90067098D01*
X138429326Y-90064292D01*
X138436783Y-90053684D01*
X138442465Y-90041273D01*
X138446611Y-90024042D01*
X138449462Y-89998976D01*
X138451258Y-89963059D01*
X138452240Y-89913275D01*
X138452648Y-89846609D01*
X138452723Y-89770781D01*
X138452723Y-89507014D01*
X138592085Y-89507014D01*
X138651890Y-89506610D01*
X138693294Y-89505032D01*
X138720464Y-89501739D01*
X138737566Y-89496184D01*
X138748769Y-89487823D01*
X138750129Y-89486370D01*
X138766487Y-89453131D01*
X138765040Y-89415554D01*
X138746234Y-89382837D01*
X138738962Y-89376490D01*
X138729585Y-89371458D01*
X138715603Y-89367588D01*
X138694516Y-89364729D01*
X138663823Y-89362727D01*
X138621023Y-89361431D01*
X138563617Y-89360690D01*
X138489102Y-89360350D01*
X138394979Y-89360260D01*
X138374952Y-89360259D01*
X138276147Y-89360355D01*
G37*
X138276147Y-89360355D02*
X138197440Y-89360734D01*
X138136349Y-89361525D01*
X138090395Y-89362862D01*
X138057098Y-89364875D01*
X138033976Y-89367698D01*
X138018550Y-89371461D01*
X138008341Y-89376297D01*
X138003399Y-89380014D01*
X137977755Y-89412550D01*
X137974653Y-89446330D01*
X137990501Y-89477018D01*
X138000864Y-89489281D01*
X138012016Y-89497642D01*
X138028177Y-89502849D01*
X138053570Y-89505649D01*
X138092414Y-89506788D01*
X138148932Y-89507013D01*
X138160032Y-89507014D01*
X138305968Y-89507014D01*
X138305968Y-89777948D01*
X138306064Y-89863346D01*
X138306501Y-89929056D01*
X138307500Y-89977966D01*
X138309284Y-90012965D01*
X138312075Y-90036941D01*
X138316095Y-90052785D01*
X138321567Y-90063383D01*
X138328546Y-90071459D01*
X138361478Y-90091304D01*
X138395858Y-90089740D01*
X138427036Y-90067098D01*
X138429326Y-90064292D01*
X138436783Y-90053684D01*
X138442465Y-90041273D01*
X138446611Y-90024042D01*
X138449462Y-89998976D01*
X138451258Y-89963059D01*
X138452240Y-89913275D01*
X138452648Y-89846609D01*
X138452723Y-89770781D01*
X138452723Y-89507014D01*
X138592085Y-89507014D01*
X138651890Y-89506610D01*
X138693294Y-89505032D01*
X138720464Y-89501739D01*
X138737566Y-89496184D01*
X138748769Y-89487823D01*
X138750129Y-89486370D01*
X138766487Y-89453131D01*
X138765040Y-89415554D01*
X138746234Y-89382837D01*
X138738962Y-89376490D01*
X138729585Y-89371458D01*
X138715603Y-89367588D01*
X138694516Y-89364729D01*
X138663823Y-89362727D01*
X138621023Y-89361431D01*
X138563617Y-89360690D01*
X138489102Y-89360350D01*
X138394979Y-89360260D01*
X138374952Y-89360259D01*
X138276147Y-89360355D01*
G36*
X137010389Y-89365725D02*
G01*
X136979010Y-89387968D01*
X136951301Y-89415677D01*
X136951301Y-89725112D01*
X136951374Y-89816991D01*
X136951717Y-89889032D01*
X136952520Y-89943972D01*
X136953971Y-89984552D01*
X136956260Y-90013509D01*
X136959576Y-90033583D01*
X136964107Y-90047513D01*
X136970043Y-90058037D01*
X136974698Y-90064292D01*
X137005429Y-90088865D01*
X137040716Y-90091533D01*
X137072967Y-90076463D01*
X137083624Y-90067566D01*
X137090748Y-90055749D01*
X137095045Y-90036718D01*
X137097221Y-90006184D01*
X137097984Y-89959854D01*
X137098057Y-89924063D01*
X137098057Y-89789237D01*
X137594768Y-89789237D01*
X137594768Y-89911892D01*
X137595281Y-89967979D01*
X137597336Y-90006525D01*
X137601704Y-90032553D01*
X137609156Y-90051089D01*
X137618165Y-90064292D01*
X137649068Y-90088796D01*
X137684016Y-90091698D01*
X137717474Y-90074281D01*
X137726608Y-90065151D01*
X137733060Y-90053047D01*
X137737315Y-90034193D01*
X137739860Y-90004812D01*
X137741183Y-89961129D01*
X137741769Y-89899367D01*
X137741837Y-89885192D01*
X137742321Y-89768823D01*
X137742571Y-89672919D01*
X137742489Y-89595369D01*
X137741981Y-89534061D01*
X137740950Y-89486882D01*
X137739299Y-89451722D01*
X137736933Y-89426468D01*
X137733755Y-89409009D01*
X137729668Y-89397233D01*
X137724578Y-89389027D01*
X137718946Y-89382837D01*
X137687084Y-89363036D01*
X137653855Y-89365725D01*
X137622477Y-89387968D01*
X137609779Y-89402318D01*
X137601686Y-89418170D01*
X137597170Y-89440746D01*
X137595206Y-89475270D01*
X137594768Y-89526968D01*
X137594768Y-89642481D01*
X137098057Y-89642481D01*
X137098057Y-89523948D01*
X137097550Y-89469340D01*
X137095514Y-89432467D01*
X137091177Y-89408499D01*
X137083765Y-89392607D01*
X137075479Y-89382837D01*
X137043618Y-89363036D01*
X137010389Y-89365725D01*
G37*
X137010389Y-89365725D02*
X136979010Y-89387968D01*
X136951301Y-89415677D01*
X136951301Y-89725112D01*
X136951374Y-89816991D01*
X136951717Y-89889032D01*
X136952520Y-89943972D01*
X136953971Y-89984552D01*
X136956260Y-90013509D01*
X136959576Y-90033583D01*
X136964107Y-90047513D01*
X136970043Y-90058037D01*
X136974698Y-90064292D01*
X137005429Y-90088865D01*
X137040716Y-90091533D01*
X137072967Y-90076463D01*
X137083624Y-90067566D01*
X137090748Y-90055749D01*
X137095045Y-90036718D01*
X137097221Y-90006184D01*
X137097984Y-89959854D01*
X137098057Y-89924063D01*
X137098057Y-89789237D01*
X137594768Y-89789237D01*
X137594768Y-89911892D01*
X137595281Y-89967979D01*
X137597336Y-90006525D01*
X137601704Y-90032553D01*
X137609156Y-90051089D01*
X137618165Y-90064292D01*
X137649068Y-90088796D01*
X137684016Y-90091698D01*
X137717474Y-90074281D01*
X137726608Y-90065151D01*
X137733060Y-90053047D01*
X137737315Y-90034193D01*
X137739860Y-90004812D01*
X137741183Y-89961129D01*
X137741769Y-89899367D01*
X137741837Y-89885192D01*
X137742321Y-89768823D01*
X137742571Y-89672919D01*
X137742489Y-89595369D01*
X137741981Y-89534061D01*
X137740950Y-89486882D01*
X137739299Y-89451722D01*
X137736933Y-89426468D01*
X137733755Y-89409009D01*
X137729668Y-89397233D01*
X137724578Y-89389027D01*
X137718946Y-89382837D01*
X137687084Y-89363036D01*
X137653855Y-89365725D01*
X137622477Y-89387968D01*
X137609779Y-89402318D01*
X137601686Y-89418170D01*
X137597170Y-89440746D01*
X137595206Y-89475270D01*
X137594768Y-89526968D01*
X137594768Y-89642481D01*
X137098057Y-89642481D01*
X137098057Y-89523948D01*
X137097550Y-89469340D01*
X137095514Y-89432467D01*
X137091177Y-89408499D01*
X137083765Y-89392607D01*
X137075479Y-89382837D01*
X137043618Y-89363036D01*
X137010389Y-89365725D01*
G36*
X145976999Y-82761490D02*
G01*
X145873893Y-82797238D01*
X145777898Y-82853507D01*
X145692167Y-82930288D01*
X145619850Y-83027573D01*
X145587365Y-83088892D01*
X145559252Y-83174660D01*
X145545625Y-83273677D01*
X145547134Y-83375471D01*
X145563889Y-83467714D01*
X145609683Y-83580432D01*
X145676088Y-83678207D01*
X145759729Y-83759115D01*
X145857232Y-83821232D01*
X145965220Y-83862634D01*
X146080319Y-83881397D01*
X146199154Y-83875598D01*
X146257731Y-83863206D01*
X146371892Y-83818797D01*
X146473285Y-83751033D01*
X146559465Y-83662001D01*
X146627986Y-83553791D01*
X146633784Y-83541973D01*
X146653824Y-83497628D01*
X146666407Y-83460280D01*
X146673239Y-83420880D01*
X146676025Y-83370381D01*
X146676488Y-83315433D01*
X146675723Y-83249415D01*
X146672272Y-83201689D01*
X146664397Y-83163103D01*
X146650363Y-83124506D01*
X146633040Y-83086426D01*
X146568425Y-82978328D01*
X146488854Y-82890803D01*
X146397480Y-82823841D01*
X146297456Y-82777436D01*
X146191932Y-82751581D01*
X146084062Y-82746268D01*
X145976999Y-82761490D01*
G37*
X145976999Y-82761490D02*
X145873893Y-82797238D01*
X145777898Y-82853507D01*
X145692167Y-82930288D01*
X145619850Y-83027573D01*
X145587365Y-83088892D01*
X145559252Y-83174660D01*
X145545625Y-83273677D01*
X145547134Y-83375471D01*
X145563889Y-83467714D01*
X145609683Y-83580432D01*
X145676088Y-83678207D01*
X145759729Y-83759115D01*
X145857232Y-83821232D01*
X145965220Y-83862634D01*
X146080319Y-83881397D01*
X146199154Y-83875598D01*
X146257731Y-83863206D01*
X146371892Y-83818797D01*
X146473285Y-83751033D01*
X146559465Y-83662001D01*
X146627986Y-83553791D01*
X146633784Y-83541973D01*
X146653824Y-83497628D01*
X146666407Y-83460280D01*
X146673239Y-83420880D01*
X146676025Y-83370381D01*
X146676488Y-83315433D01*
X146675723Y-83249415D01*
X146672272Y-83201689D01*
X146664397Y-83163103D01*
X146650363Y-83124506D01*
X146633040Y-83086426D01*
X146568425Y-82978328D01*
X146488854Y-82890803D01*
X146397480Y-82823841D01*
X146297456Y-82777436D01*
X146191932Y-82751581D01*
X146084062Y-82746268D01*
X145976999Y-82761490D01*
G36*
X136408650Y-83681825D02*
G01*
X136291879Y-83682304D01*
X136252191Y-83682545D01*
X135706434Y-83686135D01*
X135699569Y-85779919D01*
X135698662Y-86063842D01*
X135697858Y-86321640D01*
X135697105Y-86554646D01*
X135696351Y-86764194D01*
X135695545Y-86951618D01*
X135694635Y-87118250D01*
X135693569Y-87265425D01*
X135692296Y-87394477D01*
X135690764Y-87506739D01*
X135688922Y-87603544D01*
X135686717Y-87686226D01*
X135684098Y-87756119D01*
X135681014Y-87814557D01*
X135677412Y-87862872D01*
X135673242Y-87902400D01*
X135668451Y-87934473D01*
X135662989Y-87960424D01*
X135656802Y-87981589D01*
X135649840Y-87999299D01*
X135642051Y-88014889D01*
X135633383Y-88029693D01*
X135623785Y-88045044D01*
X135613205Y-88062276D01*
X135611036Y-88065946D01*
X135574652Y-88128031D01*
X136100489Y-88124434D01*
X136626326Y-88120838D01*
X136633191Y-88005331D01*
X136636928Y-87949899D01*
X136640823Y-87917851D01*
X136646109Y-87905135D01*
X136654017Y-87907696D01*
X136660650Y-87915024D01*
X136689546Y-87941714D01*
X136736641Y-87976021D01*
X136795300Y-88013846D01*
X136858889Y-88051090D01*
X136920771Y-88083653D01*
X136968286Y-88105077D01*
X137079604Y-88140283D01*
X137207324Y-88165222D01*
X137342019Y-88178941D01*
X137474257Y-88180486D01*
X137594612Y-88168906D01*
X137596594Y-88168574D01*
X137761279Y-88127250D01*
X137915441Y-88061412D01*
X138057592Y-87972474D01*
X138186245Y-87861852D01*
X138299913Y-87730961D01*
X138397110Y-87581216D01*
X138476348Y-87414033D01*
X138519490Y-87290190D01*
X138547941Y-87186581D01*
X138569040Y-87086252D01*
X138583432Y-86983109D01*
X138591762Y-86871057D01*
X138594675Y-86744001D01*
X138593385Y-86640252D01*
X137580270Y-86640252D01*
X137575476Y-86814222D01*
X137560352Y-86963895D01*
X137534435Y-87090597D01*
X137497257Y-87195658D01*
X137448355Y-87280406D01*
X137387262Y-87346169D01*
X137316743Y-87392659D01*
X137280049Y-87410014D01*
X137248224Y-87420419D01*
X137212743Y-87425179D01*
X137165079Y-87425601D01*
X137113731Y-87423748D01*
X137012751Y-87414841D01*
X136932885Y-87397398D01*
X136907785Y-87388661D01*
X136850472Y-87362857D01*
X136790023Y-87330453D01*
X136763623Y-87314233D01*
X136694974Y-87269205D01*
X136694974Y-85841982D01*
X136770488Y-85796718D01*
X136875799Y-85745572D01*
X136983395Y-85715324D01*
X137089339Y-85705795D01*
X137189696Y-85716807D01*
X137280533Y-85748181D01*
X137357913Y-85799740D01*
X137382881Y-85824488D01*
X137443064Y-85905577D01*
X137491775Y-86003734D01*
X137529421Y-86120643D01*
X137556408Y-86257985D01*
X137573145Y-86417444D01*
X137580037Y-86600700D01*
X137580270Y-86640252D01*
X138593385Y-86640252D01*
X138592847Y-86597067D01*
X138581273Y-86371053D01*
X138558000Y-86167192D01*
X138522416Y-85982513D01*
X138473907Y-85814048D01*
X138411860Y-85658826D01*
X138389719Y-85612808D01*
X138300535Y-85462739D01*
X138192761Y-85329377D01*
X138068930Y-85214877D01*
X137931578Y-85121389D01*
X137783237Y-85051068D01*
X137694316Y-85022060D01*
X137606987Y-85004840D01*
X137501909Y-84994594D01*
X137387891Y-84991318D01*
X137273743Y-84995009D01*
X137168272Y-85005660D01*
X137083586Y-85022370D01*
X136982792Y-85055140D01*
X136885098Y-85097279D01*
X136799624Y-85144519D01*
X136754131Y-85176581D01*
X136722751Y-85200422D01*
X136700778Y-85214939D01*
X136695779Y-85217000D01*
X136694230Y-85203718D01*
X136692785Y-85165663D01*
X136691477Y-85105519D01*
X136690337Y-85025973D01*
X136689399Y-84929711D01*
X136688694Y-84819419D01*
X136688253Y-84697781D01*
X136688109Y-84573885D01*
X136688190Y-84415196D01*
X136688585Y-84281408D01*
X136689525Y-84169960D01*
X136691240Y-84078295D01*
X136693963Y-84003853D01*
X136697923Y-83944075D01*
X136703351Y-83896402D01*
X136710479Y-83858274D01*
X136719536Y-83827134D01*
X136730753Y-83800421D01*
X136744362Y-83775577D01*
X136760592Y-83750043D01*
X136762680Y-83746881D01*
X136783614Y-83713810D01*
X136796253Y-83691069D01*
X136797947Y-83686272D01*
X136784704Y-83684759D01*
X136746918Y-83683528D01*
X136687504Y-83682599D01*
X136609378Y-83681992D01*
X136515455Y-83681727D01*
X136408650Y-83681825D01*
G37*
X136408650Y-83681825D02*
X136291879Y-83682304D01*
X136252191Y-83682545D01*
X135706434Y-83686135D01*
X135699569Y-85779919D01*
X135698662Y-86063842D01*
X135697858Y-86321640D01*
X135697105Y-86554646D01*
X135696351Y-86764194D01*
X135695545Y-86951618D01*
X135694635Y-87118250D01*
X135693569Y-87265425D01*
X135692296Y-87394477D01*
X135690764Y-87506739D01*
X135688922Y-87603544D01*
X135686717Y-87686226D01*
X135684098Y-87756119D01*
X135681014Y-87814557D01*
X135677412Y-87862872D01*
X135673242Y-87902400D01*
X135668451Y-87934473D01*
X135662989Y-87960424D01*
X135656802Y-87981589D01*
X135649840Y-87999299D01*
X135642051Y-88014889D01*
X135633383Y-88029693D01*
X135623785Y-88045044D01*
X135613205Y-88062276D01*
X135611036Y-88065946D01*
X135574652Y-88128031D01*
X136100489Y-88124434D01*
X136626326Y-88120838D01*
X136633191Y-88005331D01*
X136636928Y-87949899D01*
X136640823Y-87917851D01*
X136646109Y-87905135D01*
X136654017Y-87907696D01*
X136660650Y-87915024D01*
X136689546Y-87941714D01*
X136736641Y-87976021D01*
X136795300Y-88013846D01*
X136858889Y-88051090D01*
X136920771Y-88083653D01*
X136968286Y-88105077D01*
X137079604Y-88140283D01*
X137207324Y-88165222D01*
X137342019Y-88178941D01*
X137474257Y-88180486D01*
X137594612Y-88168906D01*
X137596594Y-88168574D01*
X137761279Y-88127250D01*
X137915441Y-88061412D01*
X138057592Y-87972474D01*
X138186245Y-87861852D01*
X138299913Y-87730961D01*
X138397110Y-87581216D01*
X138476348Y-87414033D01*
X138519490Y-87290190D01*
X138547941Y-87186581D01*
X138569040Y-87086252D01*
X138583432Y-86983109D01*
X138591762Y-86871057D01*
X138594675Y-86744001D01*
X138593385Y-86640252D01*
X137580270Y-86640252D01*
X137575476Y-86814222D01*
X137560352Y-86963895D01*
X137534435Y-87090597D01*
X137497257Y-87195658D01*
X137448355Y-87280406D01*
X137387262Y-87346169D01*
X137316743Y-87392659D01*
X137280049Y-87410014D01*
X137248224Y-87420419D01*
X137212743Y-87425179D01*
X137165079Y-87425601D01*
X137113731Y-87423748D01*
X137012751Y-87414841D01*
X136932885Y-87397398D01*
X136907785Y-87388661D01*
X136850472Y-87362857D01*
X136790023Y-87330453D01*
X136763623Y-87314233D01*
X136694974Y-87269205D01*
X136694974Y-85841982D01*
X136770488Y-85796718D01*
X136875799Y-85745572D01*
X136983395Y-85715324D01*
X137089339Y-85705795D01*
X137189696Y-85716807D01*
X137280533Y-85748181D01*
X137357913Y-85799740D01*
X137382881Y-85824488D01*
X137443064Y-85905577D01*
X137491775Y-86003734D01*
X137529421Y-86120643D01*
X137556408Y-86257985D01*
X137573145Y-86417444D01*
X137580037Y-86600700D01*
X137580270Y-86640252D01*
X138593385Y-86640252D01*
X138592847Y-86597067D01*
X138581273Y-86371053D01*
X138558000Y-86167192D01*
X138522416Y-85982513D01*
X138473907Y-85814048D01*
X138411860Y-85658826D01*
X138389719Y-85612808D01*
X138300535Y-85462739D01*
X138192761Y-85329377D01*
X138068930Y-85214877D01*
X137931578Y-85121389D01*
X137783237Y-85051068D01*
X137694316Y-85022060D01*
X137606987Y-85004840D01*
X137501909Y-84994594D01*
X137387891Y-84991318D01*
X137273743Y-84995009D01*
X137168272Y-85005660D01*
X137083586Y-85022370D01*
X136982792Y-85055140D01*
X136885098Y-85097279D01*
X136799624Y-85144519D01*
X136754131Y-85176581D01*
X136722751Y-85200422D01*
X136700778Y-85214939D01*
X136695779Y-85217000D01*
X136694230Y-85203718D01*
X136692785Y-85165663D01*
X136691477Y-85105519D01*
X136690337Y-85025973D01*
X136689399Y-84929711D01*
X136688694Y-84819419D01*
X136688253Y-84697781D01*
X136688109Y-84573885D01*
X136688190Y-84415196D01*
X136688585Y-84281408D01*
X136689525Y-84169960D01*
X136691240Y-84078295D01*
X136693963Y-84003853D01*
X136697923Y-83944075D01*
X136703351Y-83896402D01*
X136710479Y-83858274D01*
X136719536Y-83827134D01*
X136730753Y-83800421D01*
X136744362Y-83775577D01*
X136760592Y-83750043D01*
X136762680Y-83746881D01*
X136783614Y-83713810D01*
X136796253Y-83691069D01*
X136797947Y-83686272D01*
X136784704Y-83684759D01*
X136746918Y-83683528D01*
X136687504Y-83682599D01*
X136609378Y-83681992D01*
X136515455Y-83681727D01*
X136408650Y-83681825D01*
G36*
X140083415Y-84989229D02*
G01*
X140015389Y-84994378D01*
X139820757Y-85020273D01*
X139648391Y-85061575D01*
X139497450Y-85118853D01*
X139367095Y-85192674D01*
X139256486Y-85283608D01*
X139164785Y-85392222D01*
X139091150Y-85519085D01*
X139037381Y-85656352D01*
X139023733Y-85700137D01*
X139011847Y-85741141D01*
X139001586Y-85781569D01*
X138992807Y-85823630D01*
X138985372Y-85869531D01*
X138979140Y-85921480D01*
X138973970Y-85981685D01*
X138969724Y-86052352D01*
X138966260Y-86135689D01*
X138963439Y-86233905D01*
X138961120Y-86349205D01*
X138959163Y-86483799D01*
X138957429Y-86639893D01*
X138955777Y-86819695D01*
X138954596Y-86960676D01*
X138946650Y-87928622D01*
X138895164Y-88021770D01*
X138870783Y-88066645D01*
X138852640Y-88101501D01*
X138843985Y-88120054D01*
X138843677Y-88121311D01*
X138856906Y-88122749D01*
X138894594Y-88124074D01*
X138953737Y-88125249D01*
X139031334Y-88126237D01*
X139124384Y-88126999D01*
X139229885Y-88127500D01*
X139344836Y-88127701D01*
X139358542Y-88127703D01*
X139873407Y-88127703D01*
X139873407Y-88011000D01*
X139874285Y-87958260D01*
X139876628Y-87917926D01*
X139879999Y-87896300D01*
X139881489Y-87894298D01*
X139895116Y-87902683D01*
X139923163Y-87924692D01*
X139959617Y-87955601D01*
X139960435Y-87956316D01*
X140026958Y-88005843D01*
X140110972Y-88055575D01*
X140202983Y-88100626D01*
X140293499Y-88136110D01*
X140333353Y-88148236D01*
X140412665Y-88163637D01*
X140509985Y-88173465D01*
X140616404Y-88177580D01*
X140723013Y-88175841D01*
X140820903Y-88168108D01*
X140889407Y-88156981D01*
X141057400Y-88107648D01*
X141208639Y-88037342D01*
X141342138Y-87946933D01*
X141456914Y-87837295D01*
X141551983Y-87709299D01*
X141626360Y-87563818D01*
X141658446Y-87475541D01*
X141678555Y-87389739D01*
X141691882Y-87286736D01*
X141698048Y-87176034D01*
X141697846Y-87159925D01*
X140769272Y-87159925D01*
X140761572Y-87242184D01*
X140735931Y-87310546D01*
X140688542Y-87373970D01*
X140670341Y-87392567D01*
X140605638Y-87442846D01*
X140530854Y-87475056D01*
X140441258Y-87490648D01*
X140346908Y-87491796D01*
X140257419Y-87484216D01*
X140188902Y-87469389D01*
X140159145Y-87458253D01*
X140105512Y-87427904D01*
X140048685Y-87385221D01*
X139996838Y-87337317D01*
X139958142Y-87291301D01*
X139947866Y-87274421D01*
X139939878Y-87250782D01*
X139934199Y-87213168D01*
X139930564Y-87157985D01*
X139928709Y-87081640D01*
X139928326Y-87008981D01*
X139928585Y-86924270D01*
X139929633Y-86863018D01*
X139931875Y-86821227D01*
X139935714Y-86794899D01*
X139941555Y-86780035D01*
X139949802Y-86772639D01*
X139952353Y-86771461D01*
X139974520Y-86767833D01*
X140018240Y-86764866D01*
X140077609Y-86762827D01*
X140146724Y-86761983D01*
X140161731Y-86761982D01*
X140254115Y-86763457D01*
X140325488Y-86767842D01*
X140382201Y-86775738D01*
X140429048Y-86787270D01*
X140545251Y-86831215D01*
X140636377Y-86885243D01*
X140703215Y-86950219D01*
X140746555Y-87027005D01*
X140767186Y-87116467D01*
X140769272Y-87159925D01*
X141697846Y-87159925D01*
X141696676Y-87067133D01*
X141687388Y-86969536D01*
X141680143Y-86930105D01*
X141633881Y-86783701D01*
X141563536Y-86648995D01*
X141470436Y-86527280D01*
X141355908Y-86419847D01*
X141221280Y-86327988D01*
X141067880Y-86252996D01*
X140937461Y-86207458D01*
X140850297Y-86183533D01*
X140766924Y-86164943D01*
X140681944Y-86151084D01*
X140589955Y-86141351D01*
X140485558Y-86135141D01*
X140363352Y-86131851D01*
X140252865Y-86130924D01*
X139925243Y-86130027D01*
X139931519Y-86031547D01*
X139949341Y-85924695D01*
X139987253Y-85832852D01*
X140043640Y-85758310D01*
X140116889Y-85703364D01*
X140181385Y-85676552D01*
X140273797Y-85659654D01*
X140383809Y-85657227D01*
X140506264Y-85668378D01*
X140636006Y-85692210D01*
X140767878Y-85727830D01*
X140896722Y-85774343D01*
X140990354Y-85816883D01*
X141035403Y-85838728D01*
X141069764Y-85853984D01*
X141087239Y-85859937D01*
X141088187Y-85859746D01*
X141094217Y-85846412D01*
X141109275Y-85811068D01*
X141131943Y-85757101D01*
X141160805Y-85687896D01*
X141194443Y-85606840D01*
X141228636Y-85524118D01*
X141365334Y-85192803D01*
X141268100Y-85176833D01*
X141225956Y-85168820D01*
X141162601Y-85155361D01*
X141083463Y-85137679D01*
X140993969Y-85116996D01*
X140899547Y-85094532D01*
X140861947Y-85085403D01*
X140699283Y-85047674D01*
X140556870Y-85019388D01*
X140429393Y-84999972D01*
X140311536Y-84988854D01*
X140197982Y-84985464D01*
X140083415Y-84989229D01*
G37*
X140083415Y-84989229D02*
X140015389Y-84994378D01*
X139820757Y-85020273D01*
X139648391Y-85061575D01*
X139497450Y-85118853D01*
X139367095Y-85192674D01*
X139256486Y-85283608D01*
X139164785Y-85392222D01*
X139091150Y-85519085D01*
X139037381Y-85656352D01*
X139023733Y-85700137D01*
X139011847Y-85741141D01*
X139001586Y-85781569D01*
X138992807Y-85823630D01*
X138985372Y-85869531D01*
X138979140Y-85921480D01*
X138973970Y-85981685D01*
X138969724Y-86052352D01*
X138966260Y-86135689D01*
X138963439Y-86233905D01*
X138961120Y-86349205D01*
X138959163Y-86483799D01*
X138957429Y-86639893D01*
X138955777Y-86819695D01*
X138954596Y-86960676D01*
X138946650Y-87928622D01*
X138895164Y-88021770D01*
X138870783Y-88066645D01*
X138852640Y-88101501D01*
X138843985Y-88120054D01*
X138843677Y-88121311D01*
X138856906Y-88122749D01*
X138894594Y-88124074D01*
X138953737Y-88125249D01*
X139031334Y-88126237D01*
X139124384Y-88126999D01*
X139229885Y-88127500D01*
X139344836Y-88127701D01*
X139358542Y-88127703D01*
X139873407Y-88127703D01*
X139873407Y-88011000D01*
X139874285Y-87958260D01*
X139876628Y-87917926D01*
X139879999Y-87896300D01*
X139881489Y-87894298D01*
X139895116Y-87902683D01*
X139923163Y-87924692D01*
X139959617Y-87955601D01*
X139960435Y-87956316D01*
X140026958Y-88005843D01*
X140110972Y-88055575D01*
X140202983Y-88100626D01*
X140293499Y-88136110D01*
X140333353Y-88148236D01*
X140412665Y-88163637D01*
X140509985Y-88173465D01*
X140616404Y-88177580D01*
X140723013Y-88175841D01*
X140820903Y-88168108D01*
X140889407Y-88156981D01*
X141057400Y-88107648D01*
X141208639Y-88037342D01*
X141342138Y-87946933D01*
X141456914Y-87837295D01*
X141551983Y-87709299D01*
X141626360Y-87563818D01*
X141658446Y-87475541D01*
X141678555Y-87389739D01*
X141691882Y-87286736D01*
X141698048Y-87176034D01*
X141697846Y-87159925D01*
X140769272Y-87159925D01*
X140761572Y-87242184D01*
X140735931Y-87310546D01*
X140688542Y-87373970D01*
X140670341Y-87392567D01*
X140605638Y-87442846D01*
X140530854Y-87475056D01*
X140441258Y-87490648D01*
X140346908Y-87491796D01*
X140257419Y-87484216D01*
X140188902Y-87469389D01*
X140159145Y-87458253D01*
X140105512Y-87427904D01*
X140048685Y-87385221D01*
X139996838Y-87337317D01*
X139958142Y-87291301D01*
X139947866Y-87274421D01*
X139939878Y-87250782D01*
X139934199Y-87213168D01*
X139930564Y-87157985D01*
X139928709Y-87081640D01*
X139928326Y-87008981D01*
X139928585Y-86924270D01*
X139929633Y-86863018D01*
X139931875Y-86821227D01*
X139935714Y-86794899D01*
X139941555Y-86780035D01*
X139949802Y-86772639D01*
X139952353Y-86771461D01*
X139974520Y-86767833D01*
X140018240Y-86764866D01*
X140077609Y-86762827D01*
X140146724Y-86761983D01*
X140161731Y-86761982D01*
X140254115Y-86763457D01*
X140325488Y-86767842D01*
X140382201Y-86775738D01*
X140429048Y-86787270D01*
X140545251Y-86831215D01*
X140636377Y-86885243D01*
X140703215Y-86950219D01*
X140746555Y-87027005D01*
X140767186Y-87116467D01*
X140769272Y-87159925D01*
X141697846Y-87159925D01*
X141696676Y-87067133D01*
X141687388Y-86969536D01*
X141680143Y-86930105D01*
X141633881Y-86783701D01*
X141563536Y-86648995D01*
X141470436Y-86527280D01*
X141355908Y-86419847D01*
X141221280Y-86327988D01*
X141067880Y-86252996D01*
X140937461Y-86207458D01*
X140850297Y-86183533D01*
X140766924Y-86164943D01*
X140681944Y-86151084D01*
X140589955Y-86141351D01*
X140485558Y-86135141D01*
X140363352Y-86131851D01*
X140252865Y-86130924D01*
X139925243Y-86130027D01*
X139931519Y-86031547D01*
X139949341Y-85924695D01*
X139987253Y-85832852D01*
X140043640Y-85758310D01*
X140116889Y-85703364D01*
X140181385Y-85676552D01*
X140273797Y-85659654D01*
X140383809Y-85657227D01*
X140506264Y-85668378D01*
X140636006Y-85692210D01*
X140767878Y-85727830D01*
X140896722Y-85774343D01*
X140990354Y-85816883D01*
X141035403Y-85838728D01*
X141069764Y-85853984D01*
X141087239Y-85859937D01*
X141088187Y-85859746D01*
X141094217Y-85846412D01*
X141109275Y-85811068D01*
X141131943Y-85757101D01*
X141160805Y-85687896D01*
X141194443Y-85606840D01*
X141228636Y-85524118D01*
X141365334Y-85192803D01*
X141268100Y-85176833D01*
X141225956Y-85168820D01*
X141162601Y-85155361D01*
X141083463Y-85137679D01*
X140993969Y-85116996D01*
X140899547Y-85094532D01*
X140861947Y-85085403D01*
X140699283Y-85047674D01*
X140556870Y-85019388D01*
X140429393Y-84999972D01*
X140311536Y-84988854D01*
X140197982Y-84985464D01*
X140083415Y-84989229D01*
G36*
X142810958Y-83885499D02*
G01*
X142662906Y-83901707D01*
X142519468Y-83930718D01*
X142374810Y-83974045D01*
X142223096Y-84033201D01*
X142058492Y-84109700D01*
X142028849Y-84124517D01*
X141960822Y-84158031D01*
X141896664Y-84188208D01*
X141842705Y-84212166D01*
X141805280Y-84227024D01*
X141799531Y-84228895D01*
X141744434Y-84245402D01*
X141991069Y-84604201D01*
X142051368Y-84691893D01*
X142106498Y-84772012D01*
X142154584Y-84841836D01*
X142193752Y-84898647D01*
X142222126Y-84939723D01*
X142237833Y-84962346D01*
X142240384Y-84965928D01*
X142250749Y-84958438D01*
X142276260Y-84935918D01*
X142312357Y-84902461D01*
X142332278Y-84883550D01*
X142445147Y-84793778D01*
X142571906Y-84725561D01*
X142681137Y-84688195D01*
X142746706Y-84676460D01*
X142828804Y-84669308D01*
X142917776Y-84666874D01*
X143003964Y-84669288D01*
X143077715Y-84676683D01*
X143107144Y-84682347D01*
X143239787Y-84727982D01*
X143359314Y-84797663D01*
X143465637Y-84891260D01*
X143558667Y-85008649D01*
X143638315Y-85149700D01*
X143704494Y-85314286D01*
X143757114Y-85502280D01*
X143788387Y-85663217D01*
X143796546Y-85734263D01*
X143802105Y-85826046D01*
X143805118Y-85931968D01*
X143805639Y-86045434D01*
X143803720Y-86159849D01*
X143799417Y-86268617D01*
X143792783Y-86365143D01*
X143783871Y-86442831D01*
X143781941Y-86454817D01*
X143739421Y-86647892D01*
X143681487Y-86818773D01*
X143607787Y-86968224D01*
X143517969Y-87097011D01*
X143454213Y-87166639D01*
X143339634Y-87261173D01*
X143213978Y-87331246D01*
X143079363Y-87376477D01*
X142937909Y-87396484D01*
X142791737Y-87390885D01*
X142642965Y-87359300D01*
X142555009Y-87328394D01*
X142433291Y-87266506D01*
X142307840Y-87177729D01*
X142237567Y-87117694D01*
X142198109Y-87082947D01*
X142167108Y-87057454D01*
X142149462Y-87045170D01*
X142147272Y-87044795D01*
X142139396Y-87057347D01*
X142118988Y-87090516D01*
X142087788Y-87141458D01*
X142047534Y-87207331D01*
X141999963Y-87285289D01*
X141946816Y-87372490D01*
X141917233Y-87421067D01*
X141691272Y-87792215D01*
X141973393Y-87931639D01*
X142075398Y-87981719D01*
X142158031Y-88021210D01*
X142226342Y-88052073D01*
X142285383Y-88076268D01*
X142340206Y-88095758D01*
X142395860Y-88112503D01*
X142457397Y-88128465D01*
X142516380Y-88142482D01*
X142568805Y-88153329D01*
X142623632Y-88161526D01*
X142686348Y-88167528D01*
X142762443Y-88171790D01*
X142857404Y-88174767D01*
X142921407Y-88176052D01*
X143012728Y-88176930D01*
X143100293Y-88176487D01*
X143178308Y-88174852D01*
X143240978Y-88172149D01*
X143282507Y-88168505D01*
X143284968Y-88168142D01*
X143500617Y-88121487D01*
X143703127Y-88050729D01*
X143892425Y-87955914D01*
X144068441Y-87837089D01*
X144231104Y-87694300D01*
X144380342Y-87527594D01*
X144488424Y-87379433D01*
X144603486Y-87185502D01*
X144696497Y-86980699D01*
X144767907Y-86763383D01*
X144818164Y-86531912D01*
X144847719Y-86284643D01*
X144857031Y-86033559D01*
X144849372Y-85790670D01*
X144825307Y-85566570D01*
X144784068Y-85357477D01*
X144724893Y-85159613D01*
X144647016Y-84969196D01*
X144637717Y-84949468D01*
X144535272Y-84765059D01*
X144409448Y-84589576D01*
X144263808Y-84426650D01*
X144101919Y-84279914D01*
X143927344Y-84153001D01*
X143764676Y-84059905D01*
X143600347Y-83986991D01*
X143435669Y-83934174D01*
X143264268Y-83900015D01*
X143079767Y-83883078D01*
X142969461Y-83880580D01*
X142810958Y-83885499D01*
G37*
X142810958Y-83885499D02*
X142662906Y-83901707D01*
X142519468Y-83930718D01*
X142374810Y-83974045D01*
X142223096Y-84033201D01*
X142058492Y-84109700D01*
X142028849Y-84124517D01*
X141960822Y-84158031D01*
X141896664Y-84188208D01*
X141842705Y-84212166D01*
X141805280Y-84227024D01*
X141799531Y-84228895D01*
X141744434Y-84245402D01*
X141991069Y-84604201D01*
X142051368Y-84691893D01*
X142106498Y-84772012D01*
X142154584Y-84841836D01*
X142193752Y-84898647D01*
X142222126Y-84939723D01*
X142237833Y-84962346D01*
X142240384Y-84965928D01*
X142250749Y-84958438D01*
X142276260Y-84935918D01*
X142312357Y-84902461D01*
X142332278Y-84883550D01*
X142445147Y-84793778D01*
X142571906Y-84725561D01*
X142681137Y-84688195D01*
X142746706Y-84676460D01*
X142828804Y-84669308D01*
X142917776Y-84666874D01*
X143003964Y-84669288D01*
X143077715Y-84676683D01*
X143107144Y-84682347D01*
X143239787Y-84727982D01*
X143359314Y-84797663D01*
X143465637Y-84891260D01*
X143558667Y-85008649D01*
X143638315Y-85149700D01*
X143704494Y-85314286D01*
X143757114Y-85502280D01*
X143788387Y-85663217D01*
X143796546Y-85734263D01*
X143802105Y-85826046D01*
X143805118Y-85931968D01*
X143805639Y-86045434D01*
X143803720Y-86159849D01*
X143799417Y-86268617D01*
X143792783Y-86365143D01*
X143783871Y-86442831D01*
X143781941Y-86454817D01*
X143739421Y-86647892D01*
X143681487Y-86818773D01*
X143607787Y-86968224D01*
X143517969Y-87097011D01*
X143454213Y-87166639D01*
X143339634Y-87261173D01*
X143213978Y-87331246D01*
X143079363Y-87376477D01*
X142937909Y-87396484D01*
X142791737Y-87390885D01*
X142642965Y-87359300D01*
X142555009Y-87328394D01*
X142433291Y-87266506D01*
X142307840Y-87177729D01*
X142237567Y-87117694D01*
X142198109Y-87082947D01*
X142167108Y-87057454D01*
X142149462Y-87045170D01*
X142147272Y-87044795D01*
X142139396Y-87057347D01*
X142118988Y-87090516D01*
X142087788Y-87141458D01*
X142047534Y-87207331D01*
X141999963Y-87285289D01*
X141946816Y-87372490D01*
X141917233Y-87421067D01*
X141691272Y-87792215D01*
X141973393Y-87931639D01*
X142075398Y-87981719D01*
X142158031Y-88021210D01*
X142226342Y-88052073D01*
X142285383Y-88076268D01*
X142340206Y-88095758D01*
X142395860Y-88112503D01*
X142457397Y-88128465D01*
X142516380Y-88142482D01*
X142568805Y-88153329D01*
X142623632Y-88161526D01*
X142686348Y-88167528D01*
X142762443Y-88171790D01*
X142857404Y-88174767D01*
X142921407Y-88176052D01*
X143012728Y-88176930D01*
X143100293Y-88176487D01*
X143178308Y-88174852D01*
X143240978Y-88172149D01*
X143282507Y-88168505D01*
X143284968Y-88168142D01*
X143500617Y-88121487D01*
X143703127Y-88050729D01*
X143892425Y-87955914D01*
X144068441Y-87837089D01*
X144231104Y-87694300D01*
X144380342Y-87527594D01*
X144488424Y-87379433D01*
X144603486Y-87185502D01*
X144696497Y-86980699D01*
X144767907Y-86763383D01*
X144818164Y-86531912D01*
X144847719Y-86284643D01*
X144857031Y-86033559D01*
X144849372Y-85790670D01*
X144825307Y-85566570D01*
X144784068Y-85357477D01*
X144724893Y-85159613D01*
X144647016Y-84969196D01*
X144637717Y-84949468D01*
X144535272Y-84765059D01*
X144409448Y-84589576D01*
X144263808Y-84426650D01*
X144101919Y-84279914D01*
X143927344Y-84153001D01*
X143764676Y-84059905D01*
X143600347Y-83986991D01*
X143435669Y-83934174D01*
X143264268Y-83900015D01*
X143079767Y-83883078D01*
X142969461Y-83880580D01*
X142810958Y-83885499D01*
%TD*%
D12*
%TO.C,J2*%
X152400000Y-88900000D03*
X152400000Y-86360000D03*
X152400000Y-83820000D03*
X152400000Y-81280000D03*
X152400000Y-78740000D03*
X152400000Y-76200000D03*
X152400000Y-73660000D03*
X152400000Y-71120000D03*
X152400000Y-68580000D03*
X152400000Y-66040000D03*
D13*
X152400000Y-63500000D03*
%TD*%
D14*
%TO.C,J1*%
X105442500Y-79062460D03*
X105442500Y-72062460D03*
D15*
X108142500Y-78062460D03*
X108142500Y-73062460D03*
%TD*%
M02*
